<?xml version="1.0" encoding="utf-8"?>
<!-- Generator: Adobe Illustrator 18.1.1, SVG Export Plug-In . SVG Version: 6.00 Build 0)  -->
<svg version="1.0" xmlns="http://www.w3.org/2000/svg" xmlns:xlink="http://www.w3.org/1999/xlink" x="0px" y="0px"
	 viewBox="0 0 80 80" enable-background="new 0 0 80 80" xml:space="preserve">
<g id="Layer_1">
	<circle opacity="0.2" fill="#3572B0" cx="40" cy="40" r="40"/>
	<g>
		<g>
			<g>
				
					<rect x="35.6" y="20" transform="matrix(0.7071 0.7071 -0.7071 0.7071 39.9189 -16.7643)" fill="#F6C342" width="9.2" height="39.6"/>
				<path fill="#205081" d="M29.5,58.1c-0.3,0-0.5-0.1-0.7-0.3l-6.5-6.5c-0.2-0.2-0.3-0.4-0.3-0.7s0.1-0.5,0.3-0.7l28-28
					c0.4-0.4,1-0.4,1.4,0l6.5,6.5c0.4,0.4,0.4,1,0,1.4l-28,28C30,58,29.7,58.1,29.5,58.1z M24.3,50.5l5.1,5.1L56,29.1L50.9,24
					L24.3,50.5z"/>
			</g>
			<g>
				<polygon fill="#E9E9E9" points="59.6,20.4 50.9,22.5 57.5,29.1 				"/>
				<path fill="#205081" d="M57.5,30.1c-0.3,0-0.5-0.1-0.7-0.3l-6.5-6.5c-0.3-0.3-0.4-0.6-0.3-1s0.4-0.6,0.7-0.7l8.6-2.1
					c0.3-0.1,0.7,0,0.9,0.3c0.2,0.2,0.3,0.6,0.3,0.9l-2.1,8.6c-0.1,0.4-0.4,0.6-0.7,0.7C57.6,30.1,57.5,30.1,57.5,30.1z M52.9,23.1
					l4,4l1.3-5.3L52.9,23.1z"/>
			</g>
			<g>
				<path fill="#D04437" d="M29.5,57.1l-6.5-6.5l-1.2,1.2c-1.8,1.8-1.8,4.7,0,6.5l0,0c1.8,1.8,4.7,1.8,6.5,0L29.5,57.1z"/>
				<path fill="#205081" d="M25,60.6c-1.5,0-2.9-0.6-4-1.6c-1.1-1.1-1.6-2.5-1.6-4s0.6-2.9,1.6-4l1.2-1.2c0.4-0.4,1-0.4,1.4,0
					l6.5,6.5c0.4,0.4,0.4,1,0,1.4L29,58.9C28,60,26.5,60.6,25,60.6z M22.9,52l-0.4,0.4c-1.4,1.4-1.4,3.7,0,5.1
					c1.4,1.4,3.7,1.4,5.1,0l0.4-0.4L22.9,52z"/>
			</g>
			<circle fill="#205081" cx="32.5" cy="47.5" r="1.6"/>
			<polygon fill="#205081" points="59.6,20.4 57.1,21 59,22.9 			"/>
		</g>
		<g>
			<g>
				<path fill="#59AFE1" d="M39.4,33.5l-5.9,5.9L21.1,27.1c-1.6-1.6-1.6-4.3,0-5.9l0,0c1.6-1.6,4.3-1.6,5.9,0L39.4,33.5z"/>
				<path fill="#205081" d="M33.5,40.4c-0.3,0-0.5-0.1-0.7-0.3L20.4,27.8c-2-2-2-5.3,0-7.4c1-1,2.3-1.5,3.7-1.5
					c1.4,0,2.7,0.5,3.7,1.5l12.4,12.4c0.4,0.4,0.4,1,0,1.4l-5.9,5.9C34,40.4,33.8,40.4,33.5,40.4z M24.1,20.9
					c-0.9,0-1.7,0.3-2.3,0.9c-1.2,1.2-1.2,3.3,0,4.5L33.5,38l4.5-4.5L26.4,21.8C25.8,21.2,25,20.9,24.1,20.9z"/>
			</g>
			<g>
				<path fill="#59AFE1" d="M59.2,59.2L59.2,59.2c-1.2,1.2-3.2,1.2-4.5,0L32.3,36.7l4.5-4.5l22.4,22.4
					C60.4,55.9,60.4,57.9,59.2,59.2z"/>
				<path fill="#205081" d="M56.9,61.1c-1.1,0-2.2-0.4-2.9-1.2L31.6,37.4c-0.4-0.4-0.4-1,0-1.4l4.5-4.5c0.4-0.4,1-0.4,1.4,0L59.9,54
					c1.6,1.6,1.6,4.3,0,5.9C59.1,60.7,58,61.1,56.9,61.1z M33.7,36.7l21.7,21.7c0.8,0.8,2.2,0.8,3.1,0c0.8-0.8,0.8-2.2,0-3.1
					L36.7,33.7L33.7,36.7z"/>
			</g>
			<g>
				<path fill="#59AFE1" d="M21.1,21.1L21.1,21.1c-1.6,1.6-1.6,4.1-0.2,5.8l5.9-5.9C25.3,19.5,22.7,19.5,21.1,21.1z"/>
				<path fill="#205081" d="M21,27.9C21,27.9,21,27.9,21,27.9c-0.3,0-0.6-0.1-0.7-0.3c-1.8-2.1-1.8-5.2,0.2-7.2c1-1,2.3-1.5,3.7-1.5
					c1.3,0,2.5,0.5,3.5,1.3c0.2,0.2,0.3,0.4,0.3,0.7s-0.1,0.5-0.3,0.7l-5.9,5.9C21.5,27.8,21.2,27.9,21,27.9z M24.1,20.9
					c-0.9,0-1.7,0.3-2.3,0.9c-0.9,0.9-1.2,2.3-0.7,3.5l4.2-4.2C24.9,21,24.5,20.9,24.1,20.9z"/>
			</g>
			<g>
				<path fill="#FFFFFF" d="M21,26.9c0.1,0.1,0.1,0.1,0.2,0.2l12.4,12.4l5.9-5.9L27.1,21.1C27,21.1,27,21,26.9,21L21,26.9z"/>
				<path fill="#205081" d="M33.5,40.9L20.4,27.8c-0.1-0.1-0.1-0.1-0.2-0.2l-0.6-0.7l0.6-0.7l6.6-6.6l0.7,0.6
					c0.1,0.1,0.2,0.1,0.2,0.2l13.1,13.1L33.5,40.9z M22.4,26.9L33.5,38l4.5-4.5L26.9,22.4L22.4,26.9z"/>
			</g>
			
				<rect x="27.7" y="21.9" transform="matrix(0.7071 -0.7071 0.7071 0.7071 -11.9445 28.8366)" fill="#205081" width="2.3" height="13.8"/>
		</g>
	</g>
</g>
<g id="Layer_2">
	<g>
		<path fill="#205081" d="M40,2c21,0,38,17,38,38S61,78,40,78S2,61,2,40S19,2,40,2 M40,0C17.9,0,0,17.9,0,40s17.9,40,40,40
			s40-17.9,40-40S62.1,0,40,0L40,0z"/>
	</g>
</g>
</svg>
