<?xml version="1.0" encoding="utf-8"?>
<!-- Generator: Adobe Illustrator 18.1.1, SVG Export Plug-In . SVG Version: 6.00 Build 0)  -->
<svg version="1.0" xmlns="http://www.w3.org/2000/svg" xmlns:xlink="http://www.w3.org/1999/xlink" x="0px" y="0px"
	 viewBox="0 0 80 80" enable-background="new 0 0 80 80" xml:space="preserve">
<g id="Layer_1">
	<circle opacity="0.2" fill="#3572B0" cx="40" cy="40" r="40"/>
	<g>
		<g>
			<path fill="#FFFFFF" d="M56,61H24c-1.1,0-2-0.9-2-2V21c0-1.1,0.9-2,2-2h28l6,6v34C58,60.1,57.1,61,56,61z"/>
			<path fill="#205081" d="M56,62H24c-1.6,0-3-1.3-3-3V21c0-1.6,1.3-3,3-3h28c0.3,0,0.5,0.1,0.7,0.3l6,6c0.2,0.2,0.3,0.4,0.3,0.7v34
				C59,60.7,57.7,62,56,62z M24,20c-0.5,0-1,0.4-1,1V59c0,0.5,0.4,1,1,1H56c0.5,0,1-0.4,1-1V25.4L51.6,20H24z"/>
		</g>
		<rect x="29" y="48" fill="#205081" width="23" height="2"/>
		<rect x="29" y="53" fill="#205081" width="23" height="2"/>
		<g>
			<circle fill="#67AB49" cx="41" cy="35" r="9"/>
			<path fill="#205081" d="M41,45c-5.5,0-10-4.5-10-10s4.5-10,10-10s10,4.5,10,10S46.5,45,41,45z M41,27c-4.4,0-8,3.6-8,8s3.6,8,8,8
				s8-3.6,8-8S45.4,27,41,27z"/>
		</g>
		<g>
			<polyline fill="#67AB49" points="37,35 40,38 45,32 			"/>
			<path fill="#205081" d="M40,39c-0.3,0-0.5-0.1-0.7-0.3l-3-3l1.4-1.4l2.2,2.2l4.3-5.2l1.5,1.3l-5,6C40.6,38.9,40.3,39,40,39
				C40,39,40,39,40,39z"/>
		</g>
		<g>
			<path fill="#E9E9E9" d="M58,25h-4c-1.1,0-2-0.9-2-2v-4L58,25z"/>
			<path fill="#205081" d="M58,26h-4c-1.7,0-3-1.3-3-3v-4c0-0.4,0.2-0.8,0.6-0.9c0.4-0.2,0.8-0.1,1.1,0.2l6,6
				c0.3,0.3,0.4,0.7,0.2,1.1C58.8,25.8,58.4,26,58,26z M53,21.4V23c0,0.6,0.4,1,1,1h1.6L53,21.4z"/>
		</g>
	</g>
</g>
<g id="Layer_2">
	<g>
		<path fill="#205081" d="M40,2c21,0,38,17,38,38S61,78,40,78S2,61,2,40S19,2,40,2 M40,0C17.9,0,0,17.9,0,40s17.9,40,40,40
			s40-17.9,40-40S62.1,0,40,0L40,0z"/>
	</g>
</g>
</svg>
