<?xml version="1.0" encoding="utf-8"?>
<!-- Generator: Adobe Illustrator 18.1.1, SVG Export Plug-In . SVG Version: 6.00 Build 0)  -->
<svg version="1.0" xmlns="http://www.w3.org/2000/svg" xmlns:xlink="http://www.w3.org/1999/xlink" x="0px" y="0px"
	 viewBox="0 0 80 80" enable-background="new 0 0 80 80" xml:space="preserve">
<g id="Layer_1">
	<circle opacity="0.2" fill="#3572B0" cx="40" cy="40" r="40"/>
	<g>
		<g>
			<path fill="#FFFFFF" d="M61,56H19c-1.1,0-2-0.9-2-2V26c0-1.1,0.9-2,2-2h42c1.1,0,2,0.9,2,2v28C63,55.1,62.1,56,61,56z"/>
			<path fill="#205081" d="M61,57H19c-1.7,0-3-1.3-3-3V26c0-1.7,1.3-3,3-3h42c1.7,0,3,1.3,3,3v28C64,55.7,62.7,57,61,57z M19,25
				c-0.6,0-1,0.4-1,1v28c0,0.6,0.4,1,1,1h42c0.6,0,1-0.4,1-1V26c0-0.6-0.4-1-1-1H19z"/>
		</g>
		<g>
			<path fill="#E9E9E9" d="M63,29H17v-3c0-1.1,0.9-2,2-2h42c1.1,0,2,0.9,2,2V29z"/>
			<path fill="#205081" d="M64,30H16v-4c0-1.6,1.3-3,3-3h42c1.6,0,3,1.3,3,3V30z M18,28h44v-2c0-0.5-0.4-1-1-1H19c-0.5,0-1,0.4-1,1
				V28z"/>
		</g>
		<g>
			<path fill="#59AFE1" d="M32,56H19c-1.1,0-2-0.9-2-2V29h15V56z"/>
			<path fill="#205081" d="M32,57H19c-1.7,0-3-1.3-3-3V29c0-0.6,0.4-1,1-1h15c0.6,0,1,0.4,1,1v27C33,56.6,32.6,57,32,57z M18,30v24
				c0,0.6,0.4,1,1,1h12V30H18z"/>
		</g>
		<rect x="37" y="35" fill="#205081" width="21" height="2"/>
		<rect x="37" y="41" fill="#205081" width="16" height="2"/>
		<rect x="37" y="47" fill="#205081" width="21" height="2"/>
	</g>
</g>
<g id="Layer_2">
	<g>
		<path fill="#205081" d="M40,2c21,0,38,17,38,38S61,78,40,78S2,61,2,40S19,2,40,2 M40,0C17.9,0,0,17.9,0,40s17.9,40,40,40
			s40-17.9,40-40S62.1,0,40,0L40,0z"/>
	</g>
</g>
</svg>
