<?xml version="1.0" encoding="utf-8"?>
<!-- Generator: Adobe Illustrator 16.0.4, SVG Export Plug-In . SVG Version: 6.00 Build 0)  -->
<!DOCTYPE svg PUBLIC "-//W3C//DTD SVG 1.1//EN" "http://www.w3.org/Graphics/SVG/1.1/DTD/svg11.dtd">
<svg version="1.1" id="Layer_1" xmlns="http://www.w3.org/2000/svg" xmlns:xlink="http://www.w3.org/1999/xlink" x="0px" y="0px"
	 width="400px" height="200px" viewBox="0 0 400 200" enable-background="new 0 0 400 200" xml:space="preserve">
<g>
	<defs>
		<rect id="SVGID_1_" x="6" width="400" height="200"/>
	</defs>
	<clipPath id="SVGID_2_">
		<use xlink:href="#SVGID_1_"  overflow="visible"/>
	</clipPath>
	<g clip-path="url(#SVGID_2_)">
		<defs>
			<rect id="SVGID_3_" x="6" width="400" height="200"/>
		</defs>
		<clipPath id="SVGID_4_">
			<use xlink:href="#SVGID_3_"  overflow="visible"/>
		</clipPath>
		<path clip-path="url(#SVGID_4_)" fill="#3572B0" d="M210.8,105H103c-2.2,0-4-1.8-4-4V30.4c0-2.2,1.8-4,4-4h107.9c2.2,0,4,1.8,4,4
			V101C214.8,103.2,213,105,210.8,105"/>
		
			<path clip-path="url(#SVGID_4_)" fill="none" stroke="#205081" stroke-width="2" stroke-linecap="round" stroke-linejoin="round" stroke-miterlimit="10" d="
			M210.8,105H103c-2.2,0-4-1.8-4-4V30.4c0-2.2,1.8-4,4-4h107.9c2.2,0,4,1.8,4,4V101C214.8,103.2,213,105,210.8,105z"/>
		<path clip-path="url(#SVGID_4_)" fill="#FFFFFF" d="M130.4,37.6V105h-25.7c-3.2,0-5.7-2-5.7-4.5V37.6H130.4z"/>
		
			<path clip-path="url(#SVGID_4_)" fill="none" stroke="#205081" stroke-width="2" stroke-linejoin="round" stroke-miterlimit="10" d="
			M130.4,37.6V105h-25.7c-3.2,0-5.7-2-5.7-4.5V37.6H130.4z"/>
		
			<polyline clip-path="url(#SVGID_4_)" fill="none" stroke="#205081" stroke-width="2" stroke-linejoin="round" stroke-miterlimit="10" points="
			114.7,138.2 114.7,147.9 158.4,147.9 		"/>
		
			<polyline clip-path="url(#SVGID_4_)" fill="none" stroke="#205081" stroke-width="2" stroke-linejoin="round" stroke-miterlimit="10" points="
			227.4,54 255,54 255,68.2 		"/>
		
			<line clip-path="url(#SVGID_4_)" fill="none" stroke="#205081" stroke-width="2" stroke-linejoin="round" stroke-miterlimit="10" x1="50.1" y1="171.8" x2="351.4" y2="171.8"/>
		<path clip-path="url(#SVGID_4_)" fill="#E9E9E9" d="M214.8,38H99v-7.5c0-2.2,1.8-4,4-4h107.9c2.2,0,4,1.8,4,4V38z"/>
		
			<path clip-path="url(#SVGID_4_)" fill="none" stroke="#205081" stroke-width="2" stroke-linejoin="round" stroke-miterlimit="10" d="
			M214.8,38H99v-7.5c0-2.2,1.8-4,4-4h107.9c2.2,0,4,1.8,4,4V38z"/>
		
			<line clip-path="url(#SVGID_4_)" fill="none" stroke="#FFFFFF" stroke-width="2" stroke-miterlimit="10" x1="140.4" y1="53.5" x2="161.4" y2="53.5"/>
		
			<line clip-path="url(#SVGID_4_)" fill="none" stroke="#FFFFFF" stroke-width="2" stroke-miterlimit="10" x1="140.4" y1="69.7" x2="166.4" y2="69.7"/>
		
			<line clip-path="url(#SVGID_4_)" fill="none" stroke="#FFFFFF" stroke-width="2" stroke-miterlimit="10" x1="164.4" y1="77.7" x2="190.4" y2="77.7"/>
		
			<line clip-path="url(#SVGID_4_)" fill="none" stroke="#59AFE1" stroke-width="2" stroke-miterlimit="10" x1="154.6" y1="61.1" x2="175.6" y2="61.1"/>
		
			<line clip-path="url(#SVGID_4_)" fill="none" stroke="#59AFE1" stroke-width="2" stroke-miterlimit="10" x1="174.4" y1="53.5" x2="185.9" y2="53.5"/>
		
			<line clip-path="url(#SVGID_4_)" fill="none" stroke="#F6C342" stroke-width="2" stroke-miterlimit="10" x1="140.4" y1="61.1" x2="151.9" y2="61.1"/>
		
			<line clip-path="url(#SVGID_4_)" fill="none" stroke="#F6C342" stroke-width="2" stroke-miterlimit="10" x1="149.8" y1="77.7" x2="161.3" y2="77.7"/>
		
			<line clip-path="url(#SVGID_4_)" fill="none" stroke="#F6C342" stroke-width="2" stroke-miterlimit="10" x1="164.4" y1="53.5" x2="171.3" y2="53.5"/>
		
			<line clip-path="url(#SVGID_4_)" fill="none" stroke="#F6C342" stroke-width="2" stroke-miterlimit="10" x1="169.4" y1="69.7" x2="176.3" y2="69.7"/>
		
			<line clip-path="url(#SVGID_4_)" fill="none" stroke="#59AFE1" stroke-width="2" stroke-miterlimit="10" x1="140.3" y1="77.7" x2="147.2" y2="77.7"/>
		<polyline clip-path="url(#SVGID_4_)" fill="none" stroke="#4AC6C6" stroke-width="4" stroke-miterlimit="10" points="106.8,52.1 
			112.7,57.9 106.8,63.7 		"/>
		
			<line clip-path="url(#SVGID_4_)" fill="none" stroke="#4AC6C6" stroke-width="4" stroke-miterlimit="10" x1="115.1" y1="63.5" x2="123.9" y2="63.5"/>
		<path clip-path="url(#SVGID_4_)" fill="#59AFE1" d="M301,172.1h-36.2v-6.2c0-6.8,5.5-12.3,12.3-12.3h11.5
			c6.8,0,12.3,5.5,12.3,12.3V172.1z"/>
		<path clip-path="url(#SVGID_4_)" fill="#205081" d="M301,173.1h-36.2c-0.5,0-1-0.4-1-1v-6.2c0-7.3,6-13.3,13.3-13.3h11.5
			c7.3,0,13.3,6,13.3,13.3v6.2C302,172.6,301.6,173.1,301,173.1 M265.8,171.1H300v-5.2c0-6.3-5.1-11.3-11.3-11.3h-11.5
			c-6.3,0-11.3,5.1-11.3,11.3V171.1z"/>
		<g opacity="0.2" clip-path="url(#SVGID_4_)">
			<g>
				<defs>
					<rect id="SVGID_5_" x="267.4" y="153.7" width="31" height="16.7"/>
				</defs>
				<clipPath id="SVGID_6_">
					<use xlink:href="#SVGID_5_"  overflow="visible"/>
				</clipPath>
				<path clip-path="url(#SVGID_6_)" fill="#205081" d="M295.9,157.4c-0.7-1.8-2.4-3.1-4.3-3.2l-8.6-0.5l-8.6,0.5
					c-1.9,0.1-3.6,1.4-4.3,3.2l-2.6,7h4c0.7,0,11.6,6.1,11.6,6.1s10.5-6.1,11.1-6.1h4.4L295.9,157.4z"/>
			</g>
		</g>
		<path clip-path="url(#SVGID_4_)" fill="#59AFE1" d="M294.2,154.9c-0.7-1.8-2.4-3.1-4.3-3.2l-6.9-0.5l-6.9,0.5
			c-1.9,0.1-3.6,1.4-4.3,3.2l-2.6,7h5.1c0.7,0,1.1,1.7,2,2.4c0.9,0.6,6.7,3.7,6.7,3.7s5.9-3,6.7-3.7c0.8-0.7,1.3-2.4,2-2.4h5.1
			L294.2,154.9z"/>
		<path clip-path="url(#SVGID_4_)" fill="#205081" d="M282.9,169c-0.2,0-0.3,0-0.5-0.1c-0.6-0.3-5.9-3.2-6.8-3.8
			c-0.6-0.4-1-1-1.3-1.6c-0.1-0.2-0.3-0.4-0.4-0.6h-4.9c-0.3,0-0.6-0.2-0.8-0.4c-0.2-0.3-0.2-0.6-0.1-0.9l2.6-7
			c0.8-2.2,2.8-3.7,5.2-3.9l6.9-0.5c0,0,0.1,0,0.1,0l6.9,0.5c2.3,0.2,4.4,1.7,5.2,3.9l2.6,7c0.1,0.3,0.1,0.6-0.1,0.9
			c-0.2,0.3-0.5,0.4-0.8,0.4h-4.9c-0.1,0.2-0.3,0.4-0.4,0.7c-0.3,0.5-0.6,1-1.1,1.4c-0.9,0.8-5.9,3.4-6.9,3.9
			C283.2,168.9,283.1,169,282.9,169 M270.5,160.9h3.7c0.9,0,1.4,0.8,1.8,1.5c0.2,0.4,0.5,0.8,0.7,1c0.6,0.4,3.8,2.2,6.1,3.4
			c2.7-1.4,5.6-3,6-3.4c0.2-0.2,0.5-0.6,0.7-1c0.5-0.7,1-1.6,1.9-1.6h3.7l-2.1-5.6c-0.5-1.5-1.9-2.5-3.4-2.6l-6.9-0.5l-6.9,0.5
			c-1.5,0.1-2.9,1.1-3.4,2.6L270.5,160.9z"/>
		<path clip-path="url(#SVGID_4_)" fill="#FFFFFF" d="M276.3,145.8v9.9c0,3.6,6.6,12.3,6.6,12.3s6.6-8.7,6.6-12.3v-9.9H276.3z"/>
		<path clip-path="url(#SVGID_4_)" fill="#205081" d="M282.9,169L282.9,169c-0.3,0-0.6-0.1-0.8-0.4c-0.7-0.9-6.8-9.1-6.8-12.9v-9.9
			c0-0.5,0.4-1,1-1h13.2c0.5,0,1,0.4,1,1v9.9c0,3.9-6.1,12-6.8,12.9C283.5,168.8,283.2,169,282.9,169 M277.3,146.8v8.9
			c0,2.4,3.5,7.8,5.6,10.6c2.1-2.9,5.6-8.3,5.6-10.6v-8.9H277.3z"/>
		<g opacity="0.1" clip-path="url(#SVGID_4_)">
			<g>
				<defs>
					<rect id="SVGID_7_" x="276.3" y="145.8" width="13.2" height="8.5"/>
				</defs>
				<clipPath id="SVGID_8_">
					<use xlink:href="#SVGID_7_"  overflow="visible"/>
				</clipPath>
				<g clip-path="url(#SVGID_8_)">
					<defs>
						<rect id="SVGID_9_" x="276.3" y="145.8" width="13.2" height="8.5"/>
					</defs>
					<clipPath id="SVGID_10_">
						<use xlink:href="#SVGID_9_"  overflow="visible"/>
					</clipPath>
					<path clip-path="url(#SVGID_10_)" fill="#205081" d="M276.3,153.2c2,0.7,4,1.1,6.2,1.1c2.4,0,4.8-0.3,6.9-1.1v-7.5h-13.2V153.2
						z"/>
				</g>
			</g>
		</g>
		<path clip-path="url(#SVGID_4_)" fill="#FFFFFF" d="M303.5,113.1c-0.1-11.3-9.2-20.4-20.6-20.4s-20.5,9.1-20.6,20.4h0v16
			c0,11.3,8.9,20.7,20.2,20.9c11.5,0.2,20.9-9.1,20.9-20.6L303.5,113.1L303.5,113.1z"/>
		<path clip-path="url(#SVGID_4_)" fill="#205081" d="M282.9,151L282.9,151c-0.1,0-0.2,0-0.4,0c-11.7-0.2-21.2-10-21.2-21.9v-16
			c0,0,0-0.1,0-0.1c0.1-11.8,9.8-21.4,21.5-21.4s21.4,9.6,21.5,21.4c0,0,0,0.1,0,0.1v16.3c0,5.8-2.2,11.2-6.3,15.2
			C294.1,148.8,288.7,151,282.9,151 M263.4,113.2v15.9c0,10.8,8.6,19.7,19.2,19.9c5.4,0.1,10.4-2,14.2-5.7c3.7-3.7,5.7-8.6,5.7-13.8
			v-16.3c0,0,0,0,0-0.1c-0.1-10.7-8.8-19.5-19.6-19.5C272.2,93.7,263.4,102.4,263.4,113.2C263.4,113.2,263.4,113.2,263.4,113.2"/>
		<path clip-path="url(#SVGID_4_)" fill="#FFE1A4" d="M262.4,120c-2.7,0-4.9,2.2-4.9,4.9s2.2,4.9,4.9,4.9V120z"/>
		<path clip-path="url(#SVGID_4_)" fill="#205081" d="M262.4,130.9c-3.3,0-5.9-2.7-5.9-5.9c0-3.3,2.7-5.9,5.9-5.9c0.5,0,1,0.4,1,1
			v9.9C263.4,130.4,262.9,130.9,262.4,130.9 M261.4,121.1c-1.7,0.4-2.9,2-2.9,3.8s1.3,3.4,2.9,3.8V121.1z"/>
		<path clip-path="url(#SVGID_4_)" fill="#FFFFFF" d="M303.5,120c2.7,0,4.9,2.2,4.9,4.9s-2.2,4.9-4.9,4.9V120z"/>
		<path clip-path="url(#SVGID_4_)" fill="#205081" d="M303.5,130.9c-0.5,0-1-0.4-1-1V120c0-0.6,0.4-1,1-1c3.3,0,5.9,2.7,5.9,5.9
			C309.4,128.2,306.7,130.9,303.5,130.9 M304.5,121.1v7.6c1.7-0.4,2.9-2,2.9-3.8S306.2,121.6,304.5,121.1"/>
		<path clip-path="url(#SVGID_4_)" fill="#205081" d="M276.8,120c0,1.1-0.9,2.1-2.1,2.1c-1.1,0-2.1-0.9-2.1-2.1
			c0-1.1,0.9-2.1,2.1-2.1C275.8,117.9,276.8,118.9,276.8,120"/>
		<path clip-path="url(#SVGID_4_)" fill="#205081" d="M293.2,120c0,1.1-0.9,2.1-2.1,2.1s-2.1-0.9-2.1-2.1c0-1.1,0.9-2.1,2.1-2.1
			S293.2,118.9,293.2,120"/>
		<path clip-path="url(#SVGID_4_)" fill="#FFBD17" d="M303.2,116.7c-1.8,1.6-2.8,3.8-2.8,6.2v6.2c0,1.3-0.8,2.5-2,3
			c-1.1,0.4-2.4,0.1-3.2-0.7l-2.3-2.3c-0.6-0.6-1.3-0.9-2.2-0.9h-3.3c-0.4,0-0.7,0.2-0.8,0.6c-0.5,1.6-2,2.7-3.7,2.7
			c-1.7,0-3.2-1.1-3.7-2.7c-0.1-0.3-0.4-0.6-0.8-0.6h-3.3c-0.8,0-1.6,0.3-2.2,0.9l-2.2,2.2c-0.5,0.5-1.2,0.9-1.9,1
			c-1.8,0.2-3.4-1.2-3.4-3v-6.3c0-2.4-1-4.7-2.8-6.2l-0.2-0.2v15.8c0,11.4,9.2,20.6,20.6,20.6c11.4,0,20.6-9.2,20.6-20.6v-15.8
			L303.2,116.7z"/>
		<path clip-path="url(#SVGID_4_)" fill="#205081" d="M282.9,153.9c-11.9,0-21.6-9.7-21.6-21.5v-15.8c0-0.4,0.2-0.7,0.6-0.9
			c0.4-0.2,0.8-0.1,1.1,0.2l0.2,0.2c2,1.8,3.2,4.3,3.2,7v6.3c0,0.5,0.2,1.1,0.6,1.5c0.4,0.4,1,0.7,1.7,0.6c0.5,0,0.9-0.3,1.3-0.7
			l2.2-2.2c0.8-0.8,1.8-1.2,2.9-1.2h3.3c0.8,0,1.5,0.5,1.7,1.3c0.4,1.2,1.5,2,2.8,2c1.3,0,2.4-0.8,2.8-2c0.3-0.8,0.9-1.3,1.7-1.3
			h3.3c1.1,0,2.1,0.4,2.9,1.2l2.3,2.3c0.6,0.6,1.4,0.7,2.2,0.5c0.8-0.3,1.4-1.1,1.4-2v-6.2c0-2.7,1.2-5.2,3.2-7l0.2-0.2
			c0.3-0.3,0.7-0.3,1.1-0.2c0.4,0.2,0.6,0.5,0.6,0.9v15.8C304.5,144.2,294.8,153.9,282.9,153.9 M263.4,119.1v13.2
			c0,10.8,8.8,19.6,19.6,19.6c10.8,0,19.6-8.8,19.6-19.6v-13.2c-0.7,1.1-1.1,2.5-1.1,3.8v6.2c0,1.8-1.1,3.4-2.7,3.9
			c-0.4,0.2-0.9,0.2-1.4,0.2c-1.1,0-2.1-0.4-2.9-1.2l-2.3-2.3c-0.4-0.4-0.9-0.6-1.5-0.6h-3.2c-0.7,2-2.5,3.3-4.6,3.3
			c-2.1,0-3.9-1.3-4.6-3.3h-3.2c-0.5,0-1.1,0.2-1.5,0.6l-2.2,2.2c-0.7,0.7-1.6,1.1-2.5,1.2c-1.2,0.1-2.4-0.3-3.3-1.2
			c-0.8-0.8-1.2-1.8-1.2-2.9v-6.3C264.5,121.6,264.1,120.3,263.4,119.1"/>
		<path clip-path="url(#SVGID_4_)" fill="#FFBD17" d="M303.2,116.7c-1.8,1.6-2.8,3.8-2.8,6.2v6.2c0,1.3-0.8,2.5-2,3
			c-1.1,0.4-2.4,0.1-3.2-0.7l-2.3-2.3c-0.6-0.6-1.3-0.9-2.2-0.9h-3.3c-0.4,0-0.7,0.2-0.8,0.6c-0.5,1.6-2,2.7-3.7,2.7
			c-1.7,0-3.2-1.1-3.7-2.7c-0.1-0.3-0.4-0.6-0.8-0.6h-3.3c-0.8,0-1.6,0.3-2.2,0.9l-2.2,2.2c-0.5,0.5-1.2,0.9-1.9,1
			c-1.8,0.2-3.4-1.2-3.4-3v-6.3c0-2.4-1-4.7-2.8-6.2l-0.2-0.2v15.8c0,11.4,9.2,20.6,20.6,20.6c11.4,0,20.6-9.2,20.6-20.6v-15.8
			L303.2,116.7z"/>
		<path clip-path="url(#SVGID_4_)" fill="#205081" d="M282.9,153.9c-11.9,0-21.6-9.7-21.6-21.5v-15.8c0-0.4,0.2-0.7,0.6-0.9
			c0.4-0.2,0.8-0.1,1.1,0.2l0.2,0.2c2,1.8,3.2,4.3,3.2,7v6.3c0,0.5,0.2,1.1,0.6,1.5c0.4,0.4,1,0.7,1.7,0.6c0.5,0,0.9-0.3,1.3-0.7
			l2.2-2.2c0.8-0.8,1.8-1.2,2.9-1.2h3.3c0.8,0,1.5,0.5,1.7,1.3c0.4,1.2,1.5,2,2.8,2c1.3,0,2.4-0.8,2.8-2c0.3-0.8,0.9-1.3,1.7-1.3
			h3.3c1.1,0,2.1,0.4,2.9,1.2l2.3,2.3c0.6,0.6,1.4,0.7,2.2,0.5c0.8-0.3,1.4-1.1,1.4-2v-6.2c0-2.7,1.2-5.2,3.2-7l0.2-0.2
			c0.3-0.3,0.7-0.3,1.1-0.2c0.4,0.2,0.6,0.5,0.6,0.9v15.8C304.5,144.2,294.8,153.9,282.9,153.9 M263.4,119.1v13.2
			c0,10.8,8.8,19.6,19.6,19.6c10.8,0,19.6-8.8,19.6-19.6v-13.2c-0.7,1.1-1.1,2.5-1.1,3.8v6.2c0,1.8-1.1,3.4-2.7,3.9
			c-0.4,0.2-0.9,0.2-1.4,0.2c-1.1,0-2.1-0.4-2.9-1.2l-2.3-2.3c-0.4-0.4-0.9-0.6-1.5-0.6h-3.2c-0.7,2-2.5,3.3-4.6,3.3
			c-2.1,0-3.9-1.3-4.6-3.3h-3.2c-0.5,0-1.1,0.2-1.5,0.6l-2.2,2.2c-0.7,0.7-1.6,1.1-2.5,1.2c-1.2,0.1-2.4-0.3-3.3-1.2
			c-0.8-0.8-1.2-1.8-1.2-2.9v-6.3C264.5,121.6,264.1,120.3,263.4,119.1"/>
		<g opacity="0.15" clip-path="url(#SVGID_4_)">
			<g>
				<defs>
					<rect id="SVGID_11_" x="262.4" y="128.2" width="41.1" height="24.7"/>
				</defs>
				<clipPath id="SVGID_12_">
					<use xlink:href="#SVGID_11_"  overflow="visible"/>
				</clipPath>
				<path clip-path="url(#SVGID_12_)" fill="#205081" d="M282.9,148.8L282.9,148.8c-11.4,0-20.6-9.2-20.6-20.6v4.1
					c0,11.4,9.2,20.6,20.6,20.6s20.6-9.2,20.6-20.6v-4.1C303.5,139.6,294.3,148.8,282.9,148.8"/>
			</g>
		</g>
		<path clip-path="url(#SVGID_4_)" fill="#205081" d="M282.9,140.6c2.4,0,4.4-1.7,4.8-4c0.1-0.5-0.3-1-0.8-1h-8.1
			c-0.5,0-0.9,0.5-0.8,1C278.5,138.9,280.5,140.6,282.9,140.6"/>
		<g opacity="0.15" clip-path="url(#SVGID_4_)">
			<g>
				<defs>
					<rect id="SVGID_13_" x="282.1" y="143.4" width="2.5" height="2.5"/>
				</defs>
				<clipPath id="SVGID_14_">
					<use xlink:href="#SVGID_13_"  overflow="visible"/>
				</clipPath>
				<g clip-path="url(#SVGID_14_)">
					<defs>
						<rect id="SVGID_15_" x="282.1" y="143.4" width="2.5" height="2.5"/>
					</defs>
					<clipPath id="SVGID_16_">
						<use xlink:href="#SVGID_15_"  overflow="visible"/>
					</clipPath>
					<path clip-path="url(#SVGID_16_)" fill="#205081" d="M284.6,144.7c0,0.7-0.6,1.2-1.2,1.2c-0.7,0-1.2-0.6-1.2-1.2
						s0.6-1.2,1.2-1.2C284,143.4,284.6,144,284.6,144.7"/>
				</g>
			</g>
		</g>
		<path clip-path="url(#SVGID_4_)" fill="#FFBD17" d="M276.1,113.4l-4.4,1.2c-0.8,0.2-1.6-0.2-1.8-1s0.2-1.6,1-1.8l4.4-1.2
			c0.8-0.2,1.6,0.2,1.8,1S276.9,113.2,276.1,113.4"/>
		<path clip-path="url(#SVGID_4_)" fill="#205081" d="M271.4,115.6c-1.1,0-2.1-0.7-2.3-1.8c-0.4-1.3,0.4-2.6,1.7-3l4.4-1.2
			c0.2-0.1,0.4-0.1,0.7-0.1c1.1,0,2.1,0.7,2.3,1.8c0.2,0.6,0.1,1.3-0.2,1.8c-0.3,0.6-0.8,1-1.5,1.2l-4.4,1.2
			C271.8,115.6,271.6,115.6,271.4,115.6 M275.7,111.5c0,0-0.1,0-0.1,0l-4.4,1.2c-0.2,0.1-0.4,0.3-0.3,0.5c0.1,0.2,0.3,0.4,0.5,0.3
			l4.4-1.2c0.2,0,0.2-0.1,0.3-0.2c0-0.1,0.1-0.2,0-0.3C276.1,111.7,275.9,111.5,275.7,111.5"/>
		<path clip-path="url(#SVGID_4_)" fill="#FFBD17" d="M289.1,113.4l4.4,1.2c0.8,0.2,1.6-0.2,1.8-1c0.2-0.8-0.2-1.6-1-1.8l-4.4-1.2
			c-0.8-0.2-1.6,0.2-1.8,1C287.9,112.4,288.3,113.2,289.1,113.4"/>
		<path clip-path="url(#SVGID_4_)" fill="#205081" d="M293.8,115.6L293.8,115.6c-0.2,0-0.4,0-0.7-0.1l-4.4-1.2
			c-0.6-0.2-1.1-0.6-1.5-1.2c-0.3-0.6-0.4-1.2-0.2-1.9c0.3-1,1.3-1.8,2.3-1.8c0.2,0,0.4,0,0.7,0.1l4.4,1.2c1.3,0.4,2,1.7,1.7,3
			C295.9,114.9,294.9,115.6,293.8,115.6 M289.5,111.5c-0.2,0-0.4,0.1-0.4,0.3c0,0.2,0,0.3,0,0.3c0,0.1,0.1,0.2,0.3,0.2l4.4,1.2
			c0.2,0.1,0.5-0.1,0.5-0.3c0.1-0.2-0.1-0.5-0.3-0.5l-4.4-1.2C289.5,111.6,289.5,111.5,289.5,111.5"/>
		<path clip-path="url(#SVGID_4_)" fill="#FFBD17" d="M291.6,95.5c0,2.7-3.7,4.9-8.3,4.9s-8.3-2.2-8.3-4.9s3.7-4.9,8.3-4.9
			S291.6,92.9,291.6,95.5"/>
		<path clip-path="url(#SVGID_4_)" fill="#205081" d="M283.3,101.4c-5.2,0-9.3-2.6-9.3-5.9c0-3.3,4.1-5.9,9.3-5.9s9.3,2.6,9.3,5.9
			C292.6,98.8,288.5,101.4,283.3,101.4 M283.3,91.7c-4,0-7.3,1.8-7.3,3.9c0,2.1,3.3,3.9,7.3,3.9c4,0,7.3-1.8,7.3-3.9
			C290.6,93.4,287.3,91.7,283.3,91.7"/>
		<g opacity="0.15" clip-path="url(#SVGID_4_)">
			<g>
				<defs>
					<rect id="SVGID_17_" x="261.3" y="92.4" width="21.2" height="79.7"/>
				</defs>
				<clipPath id="SVGID_18_">
					<use xlink:href="#SVGID_17_"  overflow="visible"/>
				</clipPath>
				<path clip-path="url(#SVGID_18_)" fill="#205081" d="M261.3,113.1L261.3,113.1l0,15.1c0,0,0,0,0,0v4.1c0,7.3,3.8,13.6,9.4,17.3
					c3.6-4.3,5.8-9.9,5.8-15.9v-8.6v5c3.3,0,6-2.7,6-6c0-2.2-1.2-4.1-3-5.2v-17.7v-2.1v-0.4c0-2.7-1.4-5-3.5-6.3
					c-0.8,0.5-1.3,1.1-1.7,1.8C266.8,97.1,261.4,104.5,261.3,113.1"/>
				<path clip-path="url(#SVGID_18_)" fill="#205081" d="M265,160.6c-0.8,1.6-1.2,3.4-1.2,5.3v6.2h9.1
					C272.3,167.1,269.3,162.9,265,160.6"/>
			</g>
		</g>
	</g>
	<g clip-path="url(#SVGID_2_)">
		<defs>
			<rect id="SVGID_19_" x="185.4" y="146.1" width="35.5" height="26.2"/>
		</defs>
		<clipPath id="SVGID_20_">
			<use xlink:href="#SVGID_19_"  overflow="visible"/>
		</clipPath>
		<path clip-path="url(#SVGID_20_)" fill="#FF4E4A" d="M220,171.6h-33.9v-5.8c0-6.4,5.2-11.6,11.6-11.6h10.8
			c6.4,0,11.6,5.2,11.6,11.6V171.6z"/>
		
			<path clip-path="url(#SVGID_20_)" fill="none" stroke="#205081" stroke-width="2" stroke-linejoin="round" stroke-miterlimit="10" d="
			M220,171.6h-33.9v-5.8c0-6.4,5.2-11.6,11.6-11.6h10.8c6.4,0,11.6,5.2,11.6,11.6V171.6z"/>
		<g opacity="0.2" clip-path="url(#SVGID_20_)">
			<g>
				<defs>
					<rect id="SVGID_21_" x="194.7" y="154.2" width="16.8" height="9.6"/>
				</defs>
				<clipPath id="SVGID_22_">
					<use xlink:href="#SVGID_21_"  overflow="visible"/>
				</clipPath>
				<g clip-path="url(#SVGID_22_)">
					<defs>
						<rect id="SVGID_23_" x="194.7" y="154.2" width="16.8" height="9.6"/>
					</defs>
					<clipPath id="SVGID_24_">
						<use xlink:href="#SVGID_23_"  overflow="visible"/>
					</clipPath>
					<path clip-path="url(#SVGID_24_)" fill="#205081" d="M203.1,163.8c4.6,0,8.4-3.8,8.4-8.4v-0.8c-1-0.3-2-0.4-3-0.4h-10.8
						c-1,0-2,0.1-3,0.4v0.8C194.7,160,198.5,163.8,203.1,163.8"/>
				</g>
			</g>
		</g>
		<path clip-path="url(#SVGID_20_)" fill="#FFFFFF" d="M196.9,146.9v8.5c0,3.4,2.8,6.2,6.2,6.2c3.4,0,6.2-2.8,6.2-6.2v-8.5H196.9z"
			/>
		
			<path clip-path="url(#SVGID_20_)" fill="none" stroke="#205081" stroke-width="2" stroke-linejoin="round" stroke-miterlimit="10" d="
			M196.9,146.9v8.5c0,3.4,2.8,6.2,6.2,6.2c3.4,0,6.2-2.8,6.2-6.2v-8.5H196.9z"/>
		<g opacity="0.1" clip-path="url(#SVGID_20_)">
			<g>
				<defs>
					<rect id="SVGID_25_" x="196.9" y="146.9" width="12.3" height="8"/>
				</defs>
				<clipPath id="SVGID_26_">
					<use xlink:href="#SVGID_25_"  overflow="visible"/>
				</clipPath>
				<g clip-path="url(#SVGID_26_)">
					<defs>
						<rect id="SVGID_27_" x="196.9" y="146.9" width="12.3" height="8"/>
					</defs>
					<clipPath id="SVGID_28_">
						<use xlink:href="#SVGID_27_"  overflow="visible"/>
					</clipPath>
					<path clip-path="url(#SVGID_28_)" fill="#205081" d="M196.9,153.9c1.8,0.6,3.8,1,5.8,1c2.3,0,4.5-0.3,6.5-1v-7h-12.3V153.9z"/>
				</g>
			</g>
		</g>
		<g opacity="0.2" clip-path="url(#SVGID_20_)">
			<g>
				<defs>
					<rect id="SVGID_29_" x="208.5" y="166.3" width="6.6" height="2"/>
				</defs>
				<clipPath id="SVGID_30_">
					<use xlink:href="#SVGID_29_"  overflow="visible"/>
				</clipPath>
				<g clip-path="url(#SVGID_30_)">
					<defs>
						<rect id="SVGID_31_" x="208.5" y="166.6" width="6.6" height="1.5"/>
					</defs>
					<clipPath id="SVGID_32_">
						<use xlink:href="#SVGID_31_"  overflow="visible"/>
					</clipPath>
					<line clip-path="url(#SVGID_32_)" fill="#FFBD17" x1="208.5" y1="167.3" x2="215" y2="167.3"/>
					
						<line clip-path="url(#SVGID_32_)" fill="none" stroke="#205081" stroke-width="2" stroke-linejoin="round" stroke-miterlimit="10" x1="208.5" y1="167.3" x2="215" y2="167.3"/>
				</g>
			</g>
		</g>
	</g>
	<g clip-path="url(#SVGID_2_)">
		<defs>
			<rect id="SVGID_33_" x="173" y="88.7" width="60.1" height="65.8"/>
		</defs>
		<clipPath id="SVGID_34_">
			<use xlink:href="#SVGID_33_"  overflow="visible"/>
		</clipPath>
		<path clip-path="url(#SVGID_34_)" fill="#A36D41" d="M228.5,131.3c1.2-1.3,1.9-3.1,1.9-5c0-3.3-2.1-6-5-7.1l0-7.8
			c-0.2-12.2-10.1-22-22.3-22c-12.2,0-22.1,9.8-22.3,22h0v7.5c-3.3,0.8-5.8,3.8-5.8,7.3c0,2,0.8,3.8,2.1,5.2
			c-1.6,1.4-3.2,3.1-3.2,6.2c0,4.8,4,8.5,10.8,8.5H220c9.8,0,12.3-3.1,12.3-8.5C232.4,134.7,230.4,133,228.5,131.3"/>
		
			<path clip-path="url(#SVGID_34_)" fill="none" stroke="#205081" stroke-width="2" stroke-linejoin="round" stroke-miterlimit="10" d="
			M228.5,131.3c1.2-1.3,1.9-3.1,1.9-5c0-3.3-2.1-6-5-7.1l0-7.8c-0.2-12.2-10.1-22-22.3-22c-12.2,0-22.1,9.8-22.3,22h0v7.5
			c-3.3,0.8-5.8,3.8-5.8,7.3c0,2,0.8,3.8,2.1,5.2c-1.6,1.4-3.2,3.1-3.2,6.2c0,4.8,4,8.5,10.8,8.5H220c9.8,0,12.3-3.1,12.3-8.5
			C232.4,134.7,230.4,133,228.5,131.3z"/>
		<path clip-path="url(#SVGID_34_)" fill="#CC8352" d="M203.1,91.8c12.2,0,22.1,9.8,22.3,22v-2.3c-0.2-12.2-10.1-22-22.3-22
			c-12.2,0-22.1,9.8-22.3,22h0v2.3h0C181,101.6,190.9,91.8,203.1,91.8"/>
		
			<path clip-path="url(#SVGID_34_)" fill="none" stroke="#205081" stroke-width="2" stroke-linejoin="round" stroke-miterlimit="10" d="
			M228.5,131.3c1.2-1.3,1.9-3.1,1.9-5c0-3.3-2.1-6-5-7.1l0-7.8c-0.2-12.2-10.1-22-22.3-22c-12.2,0-22.1,9.8-22.3,22h0v7.5
			c-3.3,0.8-5.8,3.8-5.8,7.3c0,2,0.8,3.8,2.1,5.2c-1.6,1.4-3.2,3.1-3.2,6.2c0,4.8,4,8.5,10.8,8.5H220c9.8,0,12.3-3.1,12.3-8.5
			C232.4,134.7,230.4,133,228.5,131.3z"/>
		<g opacity="0.1" clip-path="url(#SVGID_34_)">
			<g>
				<defs>
					<rect id="SVGID_35_" x="196.5" y="106.8" width="28.9" height="15.8"/>
				</defs>
				<clipPath id="SVGID_36_">
					<use xlink:href="#SVGID_35_"  overflow="visible"/>
				</clipPath>
				<g clip-path="url(#SVGID_36_)">
					<defs>
						<rect id="SVGID_37_" x="196.5" y="106.8" width="28.9" height="15.8"/>
					</defs>
					<clipPath id="SVGID_38_">
						<use xlink:href="#SVGID_37_"  overflow="visible"/>
					</clipPath>
					<path clip-path="url(#SVGID_38_)" fill="#205081" d="M222.4,122.6h3.1l0-12.4c-17.8,2.5-28.9-3.4-28.9-3.4l1.2,2.2
						c2.6,2.8,10,9,24.7,9V122.6z"/>
				</g>
			</g>
		</g>
		<path clip-path="url(#SVGID_34_)" fill="#FFFFFF" d="M196.5,107.6c0,0-6,6.6-12.7,7.1v19.4c0,10.6,8.4,19.4,18.9,19.6
			c10.8,0.2,19.6-8.5,19.6-19.3V118C203.2,118,196.5,107.6,196.5,107.6"/>
		
			<path clip-path="url(#SVGID_34_)" fill="none" stroke="#205081" stroke-width="2" stroke-linejoin="round" stroke-miterlimit="10" d="
			M196.5,107.6c0,0-6,6.6-12.7,7.1v19.4c0,10.6,8.4,19.4,18.9,19.6c10.8,0.2,19.6-8.5,19.6-19.3V118
			C203.2,118,196.5,107.6,196.5,107.6z"/>
		<g opacity="0.1" clip-path="url(#SVGID_34_)">
			<g>
				<defs>
					<rect id="SVGID_39_" x="183.8" y="107.6" width="14.3" height="10"/>
				</defs>
				<clipPath id="SVGID_40_">
					<use xlink:href="#SVGID_39_"  overflow="visible"/>
				</clipPath>
				<g clip-path="url(#SVGID_40_)">
					<defs>
						<rect id="SVGID_41_" x="183.8" y="107.6" width="14.3" height="10"/>
					</defs>
					<clipPath id="SVGID_42_">
						<use xlink:href="#SVGID_41_"  overflow="visible"/>
					</clipPath>
					<path clip-path="url(#SVGID_42_)" fill="#205081" d="M183.8,117.6c1.9,0,12.5-3.9,14.3-8.5c-1.8-1.6-1.5-1.5-1.5-1.5
						s-6,6.6-12.7,7.1V117.6z"/>
				</g>
			</g>
		</g>
		<path clip-path="url(#SVGID_34_)" fill="#205081" d="M196.5,128.4c0,1.1-0.9,1.9-1.9,1.9s-1.9-0.9-1.9-1.9c0-1.1,0.9-1.9,1.9-1.9
			S196.5,127.3,196.5,128.4"/>
		<path clip-path="url(#SVGID_34_)" fill="#205081" d="M213.5,128.4c0,1.1-0.9,1.9-1.9,1.9c-1.1,0-1.9-0.9-1.9-1.9
			c0-1.1,0.9-1.9,1.9-1.9C212.6,126.5,213.5,127.3,213.5,128.4"/>
		
			<path clip-path="url(#SVGID_34_)" fill="none" stroke="#205081" stroke-width="2" stroke-linecap="round" stroke-linejoin="round" stroke-miterlimit="10" d="
			M191.6,124.2c0.2-1.4,1.6-2.3,3.1-2.3c1.4,0,2.8,1,3,2.3"/>
		
			<path clip-path="url(#SVGID_34_)" fill="none" stroke="#205081" stroke-width="2" stroke-linecap="round" stroke-linejoin="round" stroke-miterlimit="10" d="
			M208.5,124.2c0.2-1.4,1.6-2.3,3.1-2.3c1.4,0,2.8,1,3,2.3"/>
		<path clip-path="url(#SVGID_34_)" fill="#205081" d="M203.1,146c2.2,0,4.1-1.6,4.5-3.7c0.1-0.5-0.3-0.9-0.8-0.9h-7.6
			c-0.5,0-0.9,0.4-0.8,0.9C199,144.4,200.8,146,203.1,146"/>
		
			<line clip-path="url(#SVGID_34_)" fill="none" stroke="#205081" stroke-width="2" stroke-linecap="round" stroke-linejoin="round" stroke-miterlimit="10" x1="200.4" y1="134.8" x2="205.8" y2="134.8"/>
		<path clip-path="url(#SVGID_34_)" fill="#FFFFFF" d="M183.8,121.8c-2.6,0-4.6,2.1-4.6,4.6s2.1,4.6,4.6,4.6V121.8z"/>
		
			<path clip-path="url(#SVGID_34_)" fill="none" stroke="#205081" stroke-width="2" stroke-linejoin="round" stroke-miterlimit="10" d="
			M183.8,121.8c-2.6,0-4.6,2.1-4.6,4.6s2.1,4.6,4.6,4.6V121.8z"/>
		<path clip-path="url(#SVGID_34_)" fill="#FFE1A4" d="M222.4,121.9c2.6,0,4.6,2.1,4.6,4.6c0,2.6-2.1,4.6-4.6,4.6V121.9z"/>
		
			<path clip-path="url(#SVGID_34_)" fill="none" stroke="#205081" stroke-width="2" stroke-linejoin="round" stroke-miterlimit="10" d="
			M222.4,121.9c2.6,0,4.6,2.1,4.6,4.6c0,2.6-2.1,4.6-4.6,4.6V121.9z"/>
	</g>
	<g clip-path="url(#SVGID_2_)">
		<defs>
			<rect id="SVGID_43_" x="219.5" y="139" width="45.8" height="33.9"/>
		</defs>
		<clipPath id="SVGID_44_">
			<use xlink:href="#SVGID_43_"  overflow="visible"/>
		</clipPath>
		<path clip-path="url(#SVGID_44_)" fill="#4AC6C6" d="M264.3,171.9h-43.8v-7.5c0-8.3,6.7-14.9,14.9-14.9h13.9
			c8.3,0,14.9,6.7,14.9,14.9V171.9z"/>
		
			<path clip-path="url(#SVGID_44_)" fill="none" stroke="#205081" stroke-width="2" stroke-linejoin="round" stroke-miterlimit="10" d="
			M264.3,171.9h-43.8v-7.5c0-8.3,6.7-14.9,14.9-14.9h13.9c8.3,0,14.9,6.7,14.9,14.9V171.9z"/>
		<g opacity="0.2" clip-path="url(#SVGID_44_)">
			<g>
				<defs>
					<rect id="SVGID_45_" x="231.6" y="149.5" width="21.7" height="12.4"/>
				</defs>
				<clipPath id="SVGID_46_">
					<use xlink:href="#SVGID_45_"  overflow="visible"/>
				</clipPath>
				<g clip-path="url(#SVGID_46_)">
					<defs>
						<rect id="SVGID_47_" x="231.6" y="149.5" width="21.7" height="12.4"/>
					</defs>
					<clipPath id="SVGID_48_">
						<use xlink:href="#SVGID_47_"  overflow="visible"/>
					</clipPath>
					<path clip-path="url(#SVGID_48_)" fill="#205081" d="M242.4,161.8c6,0,10.8-4.9,10.8-10.8v-1c-1.2-0.3-2.5-0.5-3.9-0.5h-13.9
						c-1.3,0-2.6,0.2-3.9,0.5v1C231.6,157,236.4,161.8,242.4,161.8"/>
				</g>
			</g>
		</g>
		<path clip-path="url(#SVGID_44_)" fill="#FFFFFF" d="M234.5,140v11c0,4.4,3.6,8,8,8c4.4,0,8-3.6,8-8v-11H234.5z"/>
		
			<path clip-path="url(#SVGID_44_)" fill="none" stroke="#205081" stroke-width="2" stroke-linejoin="round" stroke-miterlimit="10" d="
			M234.5,140v11c0,4.4,3.6,8,8,8c4.4,0,8-3.6,8-8v-11H234.5z"/>
		<g opacity="0.1" clip-path="url(#SVGID_44_)">
			<g>
				<defs>
					<rect id="SVGID_49_" x="234.5" y="140" width="15.9" height="10.3"/>
				</defs>
				<clipPath id="SVGID_50_">
					<use xlink:href="#SVGID_49_"  overflow="visible"/>
				</clipPath>
				<g clip-path="url(#SVGID_50_)">
					<defs>
						<rect id="SVGID_51_" x="234.5" y="140" width="15.9" height="10.3"/>
					</defs>
					<clipPath id="SVGID_52_">
						<use xlink:href="#SVGID_51_"  overflow="visible"/>
					</clipPath>
					<path clip-path="url(#SVGID_52_)" fill="#205081" d="M234.5,149c2.4,0.8,4.9,1.3,7.5,1.3c2.9,0,5.8-0.4,8.4-1.3v-9h-15.9V149z"
						/>
				</g>
			</g>
		</g>
		<g opacity="0.2" clip-path="url(#SVGID_44_)">
			<g>
				<defs>
					<rect id="SVGID_53_" x="249.4" y="165.4" width="8.5" height="2"/>
				</defs>
				<clipPath id="SVGID_54_">
					<use xlink:href="#SVGID_53_"  overflow="visible"/>
				</clipPath>
				<g clip-path="url(#SVGID_54_)">
					<defs>
						<rect id="SVGID_55_" x="249.4" y="165.4" width="8.5" height="2"/>
					</defs>
					<clipPath id="SVGID_56_">
						<use xlink:href="#SVGID_55_"  overflow="visible"/>
					</clipPath>
					<line clip-path="url(#SVGID_56_)" fill="#FFBD17" x1="249.4" y1="166.4" x2="257.9" y2="166.4"/>
					
						<line clip-path="url(#SVGID_56_)" fill="none" stroke="#205081" stroke-width="2" stroke-linejoin="round" stroke-miterlimit="10" x1="249.4" y1="166.4" x2="257.9" y2="166.4"/>
				</g>
			</g>
		</g>
	</g>
	<g clip-path="url(#SVGID_2_)">
		<defs>
			<rect id="SVGID_57_" x="207.1" y="75.2" width="67.7" height="74.9"/>
		</defs>
		<clipPath id="SVGID_58_">
			<use xlink:href="#SVGID_57_"  overflow="visible"/>
		</clipPath>
		<path clip-path="url(#SVGID_58_)" fill="#E89920" d="M247.9,81.7v-0.5c0-2.8-2.2-5-5-5h-34.9c0,9.3,7,11,7,11v28.4h55.8V89.2
			c0-4.1-3.3-7.5-7.5-7.5H247.9z"/>
		
			<path clip-path="url(#SVGID_58_)" fill="none" stroke="#205081" stroke-width="2" stroke-linejoin="round" stroke-miterlimit="10" d="
			M247.9,81.7v-0.5c0-2.8-2.2-5-5-5h-34.9c0,9.3,7,11,7,11v28.4h55.8V89.2c0-4.1-3.3-7.5-7.5-7.5H247.9z"/>
		<g opacity="0.15" clip-path="url(#SVGID_58_)">
			<g>
				<defs>
					<rect id="SVGID_59_" x="215" y="89.6" width="55.8" height="26"/>
				</defs>
				<clipPath id="SVGID_60_">
					<use xlink:href="#SVGID_59_"  overflow="visible"/>
				</clipPath>
				<g clip-path="url(#SVGID_60_)">
					<defs>
						<rect id="SVGID_61_" x="215" y="89.6" width="55.8" height="26"/>
					</defs>
					<clipPath id="SVGID_62_">
						<use xlink:href="#SVGID_61_"  overflow="visible"/>
					</clipPath>
					<path clip-path="url(#SVGID_62_)" fill="#205081" d="M270.8,91.7c-1.6-1.3-3.7-2.1-6-2.1c-0.8,0-1.6,0.1-2.3,0.3
						c-4,1-12,2.8-19.6,2.8c-7.6,0-15.5-1.7-19.6-2.8c-0.8-0.2-1.6-0.3-2.3-0.3c-2.3,0-4.3,0.8-6,2.1v23.8h55.8V91.7z"/>
				</g>
			</g>
		</g>
		<path clip-path="url(#SVGID_58_)" fill="#FFFFFF" d="M221.7,96.2c-1.9-0.5-3.7,0.9-3.7,2.9v24.7c0,13.7,10.8,25.1,24.5,25.3
			c14,0.2,25.3-11,25.3-24.9V99.1c0-1.9-1.8-3.4-3.7-2.9c-4.6,1.2-13,3-21.2,3C234.7,99.1,226.4,97.4,221.7,96.2"/>
		
			<path clip-path="url(#SVGID_58_)" fill="none" stroke="#205081" stroke-width="2" stroke-linejoin="round" stroke-miterlimit="10" d="
			M221.7,96.2c-1.9-0.5-3.7,0.9-3.7,2.9v24.7c0,13.7,10.8,25.1,24.5,25.3c14,0.2,25.3-11,25.3-24.9V99.1c0-1.9-1.8-3.4-3.7-2.9
			c-4.6,1.2-13,3-21.2,3C234.7,99.1,226.4,97.4,221.7,96.2z"/>
		<path clip-path="url(#SVGID_58_)" fill="#205081" d="M234.5,115.1c0,1.4-1.1,2.5-2.5,2.5c-1.4,0-2.5-1.1-2.5-2.5s1.1-2.5,2.5-2.5
			C233.3,112.6,234.5,113.7,234.5,115.1"/>
		<path clip-path="url(#SVGID_58_)" fill="#205081" d="M256.4,115.1c0,1.4-1.1,2.5-2.5,2.5c-1.4,0-2.5-1.1-2.5-2.5s1.1-2.5,2.5-2.5
			C255.3,112.6,256.4,113.7,256.4,115.1"/>
		
			<path clip-path="url(#SVGID_58_)" fill="none" stroke="#205081" stroke-width="2" stroke-linecap="round" stroke-linejoin="round" stroke-miterlimit="10" d="
			M228,109.6c0.3-1.8,2.1-3,4-3c1.9,0,3.6,1.3,3.9,3"/>
		
			<path clip-path="url(#SVGID_58_)" fill="none" stroke="#205081" stroke-width="2" stroke-linecap="round" stroke-linejoin="round" stroke-miterlimit="10" d="
			M249.9,109.6c0.3-1.8,2.1-3,4-3c1.9,0,3.6,1.3,3.9,3"/>
		<path clip-path="url(#SVGID_58_)" fill="#205081" d="M242.9,141.2c2.9,0,5.3-2.1,5.9-4.8c0.1-0.6-0.4-1.2-1-1.2H238
			c-0.6,0-1.1,0.6-1,1.2C237.6,139.2,240,141.2,242.9,141.2"/>
		
			<polyline clip-path="url(#SVGID_58_)" fill="none" stroke="#205081" stroke-width="2" stroke-linecap="round" stroke-linejoin="round" stroke-miterlimit="10" points="
			239.9,117.3 239.9,127.8 245.4,127.8 245.4,124.8 		"/>
		<path clip-path="url(#SVGID_58_)" fill="#FFFFFF" d="M218,108.6c-3.3,0-6,2.7-6,6c0,3.3,2.7,6,6,6V108.6z"/>
		
			<path clip-path="url(#SVGID_58_)" fill="none" stroke="#205081" stroke-width="2" stroke-linejoin="round" stroke-miterlimit="10" d="
			M218,108.6c-3.3,0-6,2.7-6,6c0,3.3,2.7,6,6,6V108.6z"/>
		<path clip-path="url(#SVGID_58_)" fill="#FFFFFF" d="M267.8,108.6c3.3,0,6,2.7,6,6c0,3.3-2.7,6-6,6V108.6z"/>
		
			<path clip-path="url(#SVGID_58_)" fill="none" stroke="#205081" stroke-width="2" stroke-linejoin="round" stroke-miterlimit="10" d="
			M267.8,108.6c3.3,0,6,2.7,6,6c0,3.3-2.7,6-6,6V108.6z"/>
		<path clip-path="url(#SVGID_58_)" fill="#FFBD17" d="M247.5,79.2c-0.8-1.8-2.5-3-4.6-3h-34.9c0,1.1,0.1,2.1,0.3,3"/>
		
			<path clip-path="url(#SVGID_58_)" fill="none" stroke="#205081" stroke-width="2" stroke-linecap="round" stroke-linejoin="round" stroke-miterlimit="10" d="
			M247.5,79.2c-0.8-1.8-2.5-3-4.6-3h-34.9c0,1.1,0.1,2.1,0.3,3"/>
	</g>
	<g clip-path="url(#SVGID_2_)">
		<defs>
			<rect id="SVGID_63_" x="6" width="400" height="200"/>
		</defs>
		<clipPath id="SVGID_64_">
			<use xlink:href="#SVGID_63_"  overflow="visible"/>
		</clipPath>
		<path clip-path="url(#SVGID_64_)" fill="#4AC6C6" d="M118.5,132.7H90.2c-4.4,0-8-3.6-8-8V96.4c0-4.4,3.6-8,8-8h28.3
			c4.4,0,8,3.6,8,8v28.3C126.5,129.1,122.9,132.7,118.5,132.7"/>
		
			<path clip-path="url(#SVGID_64_)" fill="none" stroke="#205081" stroke-width="2" stroke-linejoin="round" stroke-miterlimit="10" d="
			M118.5,132.7H90.2c-4.4,0-8-3.6-8-8V96.4c0-4.4,3.6-8,8-8h28.3c4.4,0,8,3.6,8,8v28.3C126.5,129.1,122.9,132.7,118.5,132.7z"/>
		
			<polyline clip-path="url(#SVGID_64_)" fill="none" stroke="#205081" stroke-width="2" stroke-linecap="round" stroke-linejoin="round" stroke-miterlimit="10" points="
			96,112.9 100.7,117.5 112.7,103.6 		"/>
	</g>
</g>
</svg>
