<?xml version="1.0" encoding="utf-8"?>
<!-- Generator: Adobe Illustrator 18.1.1, SVG Export Plug-In . SVG Version: 6.00 Build 0)  -->
<svg version="1.1" id="coffee" xmlns="http://www.w3.org/2000/svg" xmlns:xlink="http://www.w3.org/1999/xlink" x="0px" y="0px"
	 viewBox="0 0 128 128" enable-background="new 0 0 128 128" xml:space="preserve">
<circle fill="#4AC6C6" cx="64.02" cy="63.958" r="63.958"/>
<path fill="#FF4E4A" d="M64.81,37.247h-1.349H34.351l7.949,68.511c0.148,1.325,1.268,2.327,2.601,2.327h18.559h1.349h17.388
	c2,0,3.68-1.503,3.902-3.491l7.819-67.348H64.81z"/>
<path opacity="0.1" fill="#211618" d="M63.461,37.522H34.515v1.461l7.786,67.051c0.148,1.325,1.268,2.327,2.601,2.327h18.559h1.349
	V37.522H63.461z"/>
<polygon opacity="0.1" fill="#211618" points="40.809,92.906 87.457,92.906 87.923,88.892 40.344,88.892 "/>
<polygon opacity="0.1" fill="#211618" points="93.483,41.15 93.919,37.247 64.81,37.247 63.461,37.247 34.352,37.247 34.787,41.15 
	"/>
<path fill="#FFFFFF" d="M68.729,52.931h-9.187h-25.17c-0.783,0-1.391,0.683-1.3,1.461l4.229,33.344
	c0.077,0.659,0.636,1.156,1.3,1.156h20.941h9.187H89.67c0.664,0,1.222-0.497,1.3-1.156l4.229-33.344
	c0.091-0.778-0.517-1.461-1.3-1.461H68.729z"/>
<path opacity="0.2" fill="#4AC6C6" d="M38.601,88.892h20.3V52.931H34.371c-0.783,0-1.391,0.683-1.3,1.461l4.229,33.344
	C37.378,88.395,37.937,88.892,38.601,88.892z"/>
<circle fill="#4AC6C6" cx="64.193" cy="70.916" r="11.466"/>
<path fill="#2A5083" d="M86.005,20.925c-0.473-0.849-1.325-1.368-2.244-1.368H66.266H62.34H44.846c-0.919,0-1.771,0.519-2.244,1.368
	l-4.8,8.611H62.34h3.926h24.538L86.005,20.925z"/>
<path fill="#194063" d="M95.191,37.247H33.416c-1.712,0-3.113-1.401-3.113-3.113v-2.198c0-1.712,1.401-3.113,3.113-3.113h61.776
	c1.712,0,3.113,1.401,3.113,3.113v2.198C98.305,35.846,96.904,37.247,95.191,37.247z"/>
<path opacity="0.1" fill="#211618" d="M64.81,19.557h-2.47H44.845c-0.919,0-1.771,0.519-2.244,1.368l-4.402,7.898h-3.685
	c-2.317,0-4.212,1.896-4.212,4.212c0,2.317,1.896,4.212,4.212,4.212H64.81V19.557z"/>
</svg>
