<?xml version="1.0" encoding="UTF-8" standalone="no"?>
<svg width="16px" height="16px" viewBox="0 0 16 16" version="1.1" xmlns="http://www.w3.org/2000/svg" xmlns:xlink="http://www.w3.org/1999/xlink" xmlns:sketch="http://www.bohemiancoding.com/sketch/ns">
    <!-- Generator: Sketch 3.3 (11970) - http://www.bohemiancoding.com/sketch -->
    <title>design_task</title>
    <desc>Created with Sketch.</desc>
    <defs></defs>
    <g id="Page-1" stroke="none" stroke-width="1" fill="none" fill-rule="evenodd" sketch:type="MSPage">
        <g id="design_task" sketch:type="MSArtboardGroup">
            <g id="Design-task" sketch:type="MSLayerGroup" transform="translate(1.000000, 1.000000)">
                <path d="M13,14 L1,14 C0.448,14 0,13.552 0,13 L0,1 C0,0.448 0.448,0 1,0 L13,0 C13.552,0 14,0.448 14,1 L14,13 C14,13.552 13.552,14 13,14" id="Fill-1" fill="#3B7FC4" sketch:type="MSShapeGroup"></path>
                <path d="M9.958,7.869 L7.007,11 L4.056,7.869 C3.37,7.152 3.072,6.366 3.072,5.662 C3.072,4.462 3.823,3.662 4.962,3.662 C6.023,3.662 6.386,4.187 7.007,4.945 C7.628,4.187 7.99,3.662 9.052,3.662 C10.191,3.662 10.942,4.462 10.942,5.662 C10.942,6.366 10.644,7.152 9.958,7.869" id="Fill-2" fill="#FFFFFF" sketch:type="MSShapeGroup"></path>
            </g>
        </g>
    </g>
</svg>