<?xml version="1.0" encoding="utf-8"?>
<!-- Generator: Adobe Illustrator 18.1.1, SVG Export Plug-In . SVG Version: 6.00 Build 0)  -->
<svg version="1.1" id="drill" xmlns="http://www.w3.org/2000/svg" xmlns:xlink="http://www.w3.org/1999/xlink" x="0px" y="0px"
	 viewBox="0 0 128 128" enable-background="new 0 0 128 128" xml:space="preserve">
<circle fill="#895ECC" cx="63.786" cy="63.922" r="63.922"/>
<circle fill="#194063" cx="78.305" cy="73.344" r="10.152"/>
<path fill="#FFB115" d="M92.474,106.423L92.474,106.423c7.659,0,13.925-6.266,13.925-13.925V68.75
	c0-7.659-6.266-13.925-13.925-13.925h0c-7.659,0-13.925,6.266-13.925,13.925v23.747C78.548,100.156,84.815,106.423,92.474,106.423z"
	/>
<path fill="#FFFFFF" d="M42.305,57.81H16.559c-3.549,0-6.453-2.904-6.453-6.453v0c0-3.549,2.904-6.453,6.453-6.453h25.747
	c3.564,0,6.453,2.889,6.453,6.453v0C48.758,54.906,45.854,57.81,42.305,57.81z"/>
<polygon fill="#D3E0EA" points="22.992,57.81 27.302,57.81 37.156,44.905 32.846,44.905 "/>
<path fill="#FFB115" d="M47.186,34.92v32.278c0,2.691,2.182,4.873,4.873,4.873h54.34V46.245c0-8.971-7.272-16.243-16.243-16.243
	H52.059C49.368,30.001,47.186,32.204,47.186,34.92z"/>
<path fill="#2A5083" d="M47.186,34.87h-8.673c-2.691,0-4.873,2.182-4.873,4.873V62.32c0,2.691,2.182,4.873,4.873,4.873h8.673V34.87z
	"/>
<path fill="#194063" d="M47.186,67.198V34.875h-3.912c0,0.017-0.005,0.034-0.005,0.051v32.272H47.186z"/>
<path fill="#2A5083" d="M91.382,45.485H74.784c-0.808,0-1.47-0.661-1.47-1.47V42.18c0-0.808,0.661-1.47,1.47-1.47h16.598
	c0.808,0,1.47,0.661,1.47,1.47v1.835C92.852,44.823,92.191,45.485,91.382,45.485z"/>
<path fill="#2A5083" d="M91.382,53.453H74.784c-0.808,0-1.47-0.661-1.47-1.47v-1.835c0-0.808,0.661-1.47,1.47-1.47h16.598
	c0.808,0,1.47,0.661,1.47,1.47v1.835C92.852,52.791,92.191,53.453,91.382,53.453z"/>
<path fill="#2A5083" d="M91.382,61.285H74.784c-0.808,0-1.47-0.661-1.47-1.47V57.98c0-0.808,0.661-1.47,1.47-1.47h16.598
	c0.808,0,1.47,0.661,1.47,1.47v1.835C92.852,60.623,92.191,61.285,91.382,61.285z"/>
<path fill="#D3E0EA" d="M12.665,56.632c0.981,0.689,2.159,1.1,3.43,1.152l9.834-12.879h-4.31L12.665,56.632z"/>
<path fill="#F2900F" d="M80.421,72.072h-1.873v0.16v1.679v18.147c0,7.659,6.267,13.926,13.926,13.926
	c0.059,0,0.116-0.008,0.175-0.009V84.3C92.649,77.574,87.147,72.072,80.421,72.072z"/>
</svg>
