<?xml version="1.0" encoding="UTF-8" standalone="no"?>
<svg width="16px" height="16px" viewBox="0 0 16 16" version="1.1" xmlns="http://www.w3.org/2000/svg" xmlns:xlink="http://www.w3.org/1999/xlink" xmlns:sketch="http://www.bohemiancoding.com/sketch/ns">
    <!-- Generator: Sketch 3.3 (11970) - http://www.bohemiancoding.com/sketch -->
    <title>generic_issue</title>
    <desc>Created with Sketch.</desc>
    <defs></defs>
    <g id="Page-1" stroke="none" stroke-width="1" fill="none" fill-rule="evenodd" sketch:type="MSPage">
        <g id="generic_issue" sketch:type="MSArtboardGroup">
            <g id="Generic-issue" sketch:type="MSLayerGroup" transform="translate(1.000000, 1.000000)">
                <path d="M13,14 L1,14 C0.448,14 0,13.552 0,13 L0,1 C0,0.448 0.448,0 1,0 L13,0 C13.552,0 14,0.448 14,1 L14,13 C14,13.552 13.552,14 13,14" id="Fill-1" fill="#707070" sketch:type="MSShapeGroup"></path>
                <path d="M7,3 C4.791,3 3,4.791 3,7 C3,9.209 4.791,11 7,11 C9.209,11 11,9.209 11,7 C11,4.791 9.209,3 7,3 L7,3 Z M7,10.429 C5.106,10.429 3.571,8.894 3.571,7 C3.571,5.106 5.106,3.571 7,3.571 C8.894,3.571 10.429,5.106 10.429,7 C10.429,8.894 8.894,10.429 7,10.429 L7,10.429 Z" id="Stroke-2" stroke="#FFFFFF" sketch:type="MSShapeGroup"></path>
            </g>
        </g>
    </g>
</svg>