<?xml version="1.0" encoding="utf-8"?>
<!-- Generator: Adobe Illustrator 18.1.1, SVG Export Plug-In . SVG Version: 6.00 Build 0)  -->
<svg version="1.1" id="Spanner" xmlns="http://www.w3.org/2000/svg" xmlns:xlink="http://www.w3.org/1999/xlink" x="0px" y="0px"
	 viewBox="0 0 128 128" enable-background="new 0 0 128 128" xml:space="preserve">
<path fill="#FF4E4A" d="M127.917,64.034c0,29.973-20.617,55.13-48.443,62.064c-4.967,1.238-9.33-7.15-14.681-7.15
	c-4.76,0-10.234,8.525-14.698,7.538C21.437,120.153,0,94.597,0,64.034C0,28.71,28.635,0.075,63.959,0.075
	S127.917,28.71,127.917,64.034z"/>
<path fill="#F0F4F7" d="M80.039,20.27c-0.252-0.184-0.539-0.319-0.85-0.4c-0.077-0.033-0.15-0.074-0.227-0.107l-0.052,0.052
	c-0.118-0.017-0.236-0.036-0.359-0.036c-1.401,0-2.537,1.136-2.537,2.537c0,0.123,0.019,0.241,0.036,0.359l-0.036,0.036v29.972
	c0,0.897-0.42,1.742-1.134,2.283l-9.159,6.942l0,0c-1.018,0.771-1.974,0-1.974,0l-9.159-6.942c-0.715-0.542-1.135-1.387-1.135-2.283
	V22.438l-0.011-0.008c0.002-0.039,0.011-0.075,0.011-0.114c0-1.401-1.136-2.537-2.537-2.537c-0.647,0-1.232,0.25-1.68,0.649
	c-12.178,5.82-20.614,18.207-20.614,32.604c0,11.274,5.16,21.342,13.245,27.975l-0.002-0.001l0.006,0.004
	c0.398,0.327,0.804,0.645,1.216,0.955c2.293,2.002,7.023,7.204,7.023,16.071v28.423c4.461,0.985,9.091,1.521,13.849,1.521
	c5.35,0,10.543-0.667,15.51-1.904v-28.56c0.181-8.358,4.558-13.369,6.852-15.419c8.884-6.591,14.643-17.155,14.643-29.066
	C100.964,38.511,92.387,26.025,80.039,20.27z"/>
<path fill="#BACBD6" d="M63.959,127.982c1.649,0,3.277-0.084,4.893-0.208V98.765c0-2.232-1.826-4.059-4.059-4.059
	c-2.232,0-4.059,1.826-4.059,4.059v29.127C61.803,127.946,62.876,127.982,63.959,127.982z"/>
<circle fill="#BACBD6" cx="64.729" cy="79.46" r="7.695"/>
<path opacity="0.2" fill="#00425B" d="M80.039,20.28c-0.252-0.184-0.539-0.319-0.85-0.4c-0.077-0.033-0.15-0.074-0.227-0.107
	l-0.052,0.052c-0.118-0.017-0.236-0.036-0.359-0.036c-1.401,0-2.537,1.136-2.537,2.537c0,0.123,0.019,0.241,0.036,0.359
	l-0.036,0.036v29.972c0,0.897-0.42,1.742-1.134,2.283l-9.159,6.942l0,0c-0.327,0.248-0.643,0.327-0.927,0.333v65.718
	c5.055-0.065,9.968-0.71,14.676-1.883v-28.56c0.181-8.358,4.558-13.369,6.852-15.419c8.884-6.591,14.643-17.155,14.643-29.066
	C100.964,38.522,92.387,26.035,80.039,20.28z"/>
</svg>
