<?xml version="1.0" encoding="utf-8"?>
<!-- Generator: Adobe Illustrator 18.1.1, SVG Export Plug-In . SVG Version: 6.00 Build 0)  -->
<svg version="1.1" id="Storm" xmlns="http://www.w3.org/2000/svg" xmlns:xlink="http://www.w3.org/1999/xlink" x="0px" y="0px"
	 viewBox="0 0 128 128" enable-background="new 0 0 128 128" xml:space="preserve">
<circle fill="#895ECC" cx="63.958" cy="63.958" r="63.958"/>
<path fill="#FFBD17" d="M66.201,58.441l-22.38,28.315c-0.911,1.152-0.09,2.847,1.379,2.847h10.383c1.509,0,2.316,1.776,1.324,2.913
	l-11.772,13.485c-1.325,1.518,0.531,3.708,2.246,2.651l36.146-22.278c1.508-0.929,0.849-3.253-0.922-3.253H71.031
	c-1.574,0-2.354-1.91-1.23-3.012l19.713-19.323c1.124-1.102,0.344-3.012-1.23-3.012H67.58
	C67.042,57.773,66.534,58.019,66.201,58.441z"/>
<path fill="#FFFFFF" d="M97.187,61.167c0-7.484-5.535-13.659-12.731-14.697c0.769-2.236,1.206-4.626,1.206-7.124
	c0-9.178-6.806-17.906-14.96-21.294c-5.963,1.464-10.968,5.358-13.899,10.582c-2.488-2.905-6.176-4.752-10.3-4.752
	c-7.492,0-13.566,6.073-13.566,13.566c0,1.774,0.35,3.464,0.97,5.018C26.093,43.973,20.19,50.84,20.19,59.093
	c0,9.357,7.585,16.942,16.942,16.942h48.665C92.124,74.006,97.187,67.87,97.187,61.167z"/>
<g>
	<path fill="#E4F2F9" d="M96.665,46.47c0.769-2.236,1.206-4.626,1.206-7.123c0-12.115-9.821-21.936-21.936-21.936
		c-2.274,0-4.462,0.358-6.524,1.001c8.908,2.79,15.373,11.107,15.373,20.935c0,2.497-0.437,4.887-1.206,7.123
		c7.196,1.038,12.731,7.213,12.731,14.697c0,8.211-6.657,14.868-14.868,14.868h13.087c8.211,0,14.868-6.657,14.868-14.868
		C109.396,53.684,103.861,47.509,96.665,46.47z"/>
</g>
<path opacity="0.5" fill="#FFFFFF" d="M97.66,92.392L97.66,92.392c-1.847,0-3.358-1.511-3.358-3.358v-5.679
	c0-1.847,1.511-3.358,3.358-3.358l0,0c1.847,0,3.358,1.511,3.358,3.358v5.679C101.019,90.881,99.507,92.392,97.66,92.392z"/>
<path opacity="0.5" fill="#FFFFFF" d="M84.805,105.659L84.805,105.659c-1.847,0-3.358-1.511-3.358-3.358v-5.679
	c0-1.847,1.511-3.358,3.358-3.358h0c1.847,0,3.358,1.511,3.358,3.358v5.679C88.163,104.148,86.652,105.659,84.805,105.659z"/>
<path opacity="0.5" fill="#FFFFFF" d="M31.325,90.438L31.325,90.438c-1.847,0-3.358-1.511-3.358-3.358v-5.679
	c0-1.847,1.511-3.358,3.358-3.358h0c1.847,0,3.358,1.511,3.358,3.358v5.679C34.683,88.927,33.172,90.438,31.325,90.438z"/>
</svg>
