<?xml version="1.0" encoding="utf-8"?>
<!-- Generator: Adobe Illustrator 18.1.1, SVG Export Plug-In . SVG Version: 6.00 Build 0)  -->
<svg version="1.1" id="yetti" xmlns="http://www.w3.org/2000/svg" xmlns:xlink="http://www.w3.org/1999/xlink" x="0px" y="0px"
	 viewBox="0 0 128 128" enable-background="new 0 0 128 128" xml:space="preserve">
<path fill="#4AC6C6" d="M15.466,105.679C5.827,94.48,0,79.906,0,63.97C0,28.64,28.64,0,63.97,0s63.97,28.64,63.97,63.97
	c0,16.723-6.417,31.948-16.923,43.345"/>
<circle fill="#FFBDAE" cx="25.367" cy="58.293" r="7.001"/>
<circle fill="#FFBDAE" cx="99.974" cy="58.293" r="7.001"/>
<path fill="#FFFFFF" d="M62.67,10.657c-20.602,0-37.304,16.702-37.304,37.304v9.319v2.025v9.319v16.64v9.319v2.025v9.319h74.608
	v-9.319v-2.025v-9.319v-16.64v-9.319v-2.025v-9.319C99.974,27.359,83.273,10.657,62.67,10.657z"/>
<path fill="#FFBDAE" d="M75.894,28.875H49.446c-9.078,0-16.506,7.428-16.506,16.506v1.662v4.126v4.276
	c0,16.419,13.31,29.73,29.73,29.73c16.419,0,29.73-13.31,29.73-29.73v-4.276v-4.126V45.38C92.4,36.302,84.972,28.875,75.894,28.875z
	"/>
<path fill="#FFFFFF" d="M50.532,72.734c-0.791-3.142-3.193-6.629-3.193-6.629l-0.015,0.006c-0.328-0.372-0.793-0.617-1.328-0.617
	c-0.988,0-1.789,0.801-1.789,1.789c0,0-0.416,4.369,0.416,6.866C45.456,76.645,51.13,75.108,50.532,72.734z"/>
<path fill="#FFFFFF" d="M73.735,72.734c0.791-3.142,3.193-6.629,3.193-6.629l0.015,0.006c0.328-0.372,0.793-0.617,1.328-0.617
	c0.988,0,1.789,0.801,1.789,1.789c0,0,0.416,4.369-0.416,6.866C78.812,76.645,73.138,75.108,73.735,72.734z"/>
<path fill="#333333" d="M46.17,45.6v4.276c0,2.123,1.721,3.844,3.844,3.844s3.844-1.721,3.844-3.844V45.6H46.17z"/>
<path fill="#333333" d="M72.064,45.6v4.276c0,2.123,1.721,3.844,3.844,3.844c2.123,0,3.844-1.721,3.844-3.844V45.6H72.064z"/>
<path fill="#FF4E4A" d="M68.663,63.952H57.616c-1.526,0-2.774-1.248-2.774-2.774v-2.025c0-1.526,1.248-2.774,2.774-2.774h11.047
	c1.526,0,2.774,1.248,2.774,2.774v2.025C71.437,62.704,70.189,63.952,68.663,63.952z"/>
<path fill="#F29B91" d="M62.67,68.196c-8.505,0-16.13,2.977-21.547,7.693c5.417,5.708,13.057,9.286,21.547,9.286h0.001
	c8.491,0,16.13-3.578,21.547-9.286C78.801,71.172,71.175,68.196,62.67,68.196z"/>
<path fill="#F29B91" d="M81.837,48.741H43.503c-1.838,0-3.342-1.504-3.342-3.342v-2.44c0-1.838,1.504-3.342,3.342-3.342h38.334
	c1.838,0,3.342,1.504,3.342,3.342v2.44C85.18,47.237,83.676,48.741,81.837,48.741z"/>
<path fill="#FFFFFF" d="M86.63,10.332l-0.014,0.002c-1.586,3.005-11.192,5.076-8.981,2.235c2.844-3.655,1.655-10.942-0.838-7.666
	c-4.232,5.561-14.127,5.742-14.127,5.742l3.611,7.235c0,0,16.179,3.115,19.557,0.843c3.467-2.331,2.586-6.747,1.719-8.423
	C86.978,9.273,86.63,10.332,86.63,10.332z"/>
<path fill="#FFFFFF" d="M111.034,107.331c-1.095-11.491-10.838-20.559-22.603-20.559H74.946H51.355H37.87
	c-11.183,0-20.521,8.199-22.361,18.877c11.731,13.641,29.104,22.291,48.507,22.291C82.611,127.94,99.346,119.999,111.034,107.331z"
	/>
<path fill="#FFBDAE" d="M63.849,127.94c12.316,0,23.804-3.5,33.562-9.532v-3.128c0-10.521-8.608-19.129-19.128-19.129H47.058
	c-10.521,0-19.128,8.608-19.128,19.129v1.613C38.167,123.863,50.529,127.94,63.849,127.94z"/>
<circle fill="#FF9289" cx="48.612" cy="117.676" r="4.23"/>
<circle fill="#FF9289" cx="76.482" cy="117.676" r="4.23"/>
</svg>
