<?xml version="1.0" encoding="utf-8"?>
<!-- Generator: Adobe Illustrator 18.1.1, SVG Export Plug-In . SVG Version: 6.00 Build 0)  -->
<svg version="1.0" xmlns="http://www.w3.org/2000/svg" xmlns:xlink="http://www.w3.org/1999/xlink" x="0px" y="0px"
	 viewBox="0 0 80 80" enable-background="new 0 0 80 80" xml:space="preserve">
<g id="Layer_1">
	<circle opacity="0.2" fill="#3572B0" cx="40" cy="40" r="40"/>
	<g>
		<g>
			<path fill="#FFFFFF" d="M64,57H15c-1.1,0-2-0.9-2-2V26c0-1.1,0.9-2,2-2h49c1.1,0,2,0.9,2,2v29C66,56.1,65.1,57,64,57z"/>
			<path fill="#205081" d="M64,58H15c-1.7,0-3-1.3-3-3V26c0-1.7,1.3-3,3-3h49c1.7,0,3,1.3,3,3v29C67,56.7,65.7,58,64,58z M15,25
				c-0.6,0-1,0.4-1,1v29c0,0.6,0.4,1,1,1h49c0.6,0,1-0.4,1-1V26c0-0.6-0.4-1-1-1H15z"/>
		</g>
		<g>
			<path fill="#F6C342" d="M26.5,49L26.5,49c-4.7,0-8.5-3.8-8.5-8.5v0c0-4.7,3.8-8.5,8.5-8.5h0c4.7,0,8.5,3.8,8.5,8.5v0
				C35,45.2,31.2,49,26.5,49z"/>
			<path fill="#205081" d="M26.5,50c-5.2,0-9.5-4.3-9.5-9.5s4.3-9.5,9.5-9.5s9.5,4.3,9.5,9.5S31.7,50,26.5,50z M26.5,33
				c-4.1,0-7.5,3.4-7.5,7.5s3.4,7.5,7.5,7.5s7.5-3.4,7.5-7.5S30.6,33,26.5,33z"/>
		</g>
		<path fill="#205081" d="M26.8,44c1.6,0,2.9-1.1,3.2-2.6c0.1-0.3-0.2-0.6-0.5-0.6h-5.3c-0.3,0-0.6,0.3-0.5,0.6
			C23.9,42.9,25.2,44,26.8,44z"/>
		<g>
			<line fill="#FFFFFF" x1="40" y1="40" x2="57" y2="40"/>
			<rect x="40" y="39" fill="#205081" width="17" height="2"/>
		</g>
		<g>
			<line fill="#FFFFFF" x1="40" y1="35" x2="61" y2="35"/>
			<rect x="40" y="34" fill="#205081" width="21" height="2"/>
		</g>
		<g>
			<line fill="#FFFFFF" x1="40" y1="45" x2="61" y2="45"/>
			<rect x="40" y="44" fill="#205081" width="21" height="2"/>
		</g>
	</g>
</g>
<g id="Layer_2">
	<g>
		<path fill="#205081" d="M40,2c21,0,38,17,38,38S61,78,40,78S2,61,2,40S19,2,40,2 M40,0C17.9,0,0,17.9,0,40s17.9,40,40,40
			s40-17.9,40-40S62.1,0,40,0L40,0z"/>
	</g>
</g>
</svg>
