<?xml version="1.0" encoding="UTF-8" standalone="no"?>
<svg width="16px" height="16px" viewBox="0 0 16 16" version="1.1" xmlns="http://www.w3.org/2000/svg" xmlns:xlink="http://www.w3.org/1999/xlink" xmlns:sketch="http://www.bohemiancoding.com/sketch/ns">
    <!-- Generator: Sketch 3.3 (11970) - http://www.bohemiancoding.com/sketch -->
    <title>defect</title>
    <desc>Created with Sketch.</desc>
    <defs></defs>
    <g id="Page-1" stroke="none" stroke-width="1" fill="none" fill-rule="evenodd" sketch:type="MSPage">
        <g id="defect" sketch:type="MSArtboardGroup">
            <g id="Defect" sketch:type="MSLayerGroup" transform="translate(1.000000, 1.000000)">
                <path d="M13,14 L1,14 C0.448,14 8.8817842e-16,13.552 8.8817842e-16,13 L8.8817842e-16,1 C8.8817842e-16,0.448 0.448,0 1,0 L13,0 C13.552,0 14,0.448 14,1 L14,13 C14,13.552 13.552,14 13,14" id="Fill-1" fill="#D04437" sketch:type="MSShapeGroup"></path>
                <path d="M0.0029305712,11 L1.42117326,8.86983542 L3.70753662,12.8709713 L5.49999981,4.5 L7.49999981,10.5 L9.50475957,7.01611147 L11.5,10.5 L13.9951312,7.5 L14,5.5 L11.4999998,8.5 L9.5,4.99221778 L7.49999981,8.5 L5.5,1 L3.29431705,10.1322726 L1.5,7 L0.00255344017,9 L0.0029305712,11 Z" id="Shape" fill="#FFFFFF" sketch:type="MSShapeGroup"></path>
            </g>
        </g>
    </g>
</svg>