<?xml version="1.0" encoding="utf-8"?>
<!-- Generator: Adobe Illustrator 18.1.1, SVG Export Plug-In . SVG Version: 6.00 Build 0)  -->
<svg version="1.1" id="cd" xmlns="http://www.w3.org/2000/svg" xmlns:xlink="http://www.w3.org/1999/xlink" x="0px" y="0px"
	 viewBox="0 0 128 128" enable-background="new 0 0 128 128" xml:space="preserve">
<circle fill="#FF4E4A" cx="64" cy="64" r="64"/>
<circle fill="#2A5083" cx="65.172" cy="64" r="48.667"/>
<path fill="#FFFFFF" d="M50.961,37.484l-0.009,0.004l-3.68-2.244c-1.031-0.629-1.66-1.749-1.66-2.957v-5.894l0.01-0.002
	l-0.003-0.005c-3.699,1.759-7.168,4.162-10.23,7.224c-3.062,3.062-5.465,6.531-7.224,10.23l0.141,0.068h5.685
	c1.208,0,2.328,0.629,2.957,1.66l1.979,3.246c0.116,0.19,0.284,0.343,0.485,0.439l21.662,10.426l0.385-0.385L50.961,37.484z"/>
<path fill="#FFFFFF" d="M79.585,89.503l0.009-0.004l3.68,2.244c1.031,0.629,1.66,1.749,1.66,2.957v5.894l-0.01,0.002l0.003,0.005
	c3.699-1.759,7.168-4.162,10.23-7.224c3.062-3.062,5.465-6.531,7.224-10.23l-0.141-0.068h-5.685c-1.208,0-2.328-0.629-2.957-1.66
	l-1.979-3.246c-0.116-0.19-0.284-0.343-0.485-0.439L69.472,67.308l-0.385,0.385L79.585,89.503z"/>
<circle fill="#4AC6C6" cx="65.172" cy="63.876" r="20.524"/>
<circle fill="#2A5083" cx="65.172" cy="63.876" r="7.129"/>
</svg>
