<?xml version="1.0" encoding="utf-8"?>
<!-- Generator: Adobe Illustrator 18.1.1, SVG Export Plug-In . SVG Version: 6.00 Build 0)  -->
<svg version="1.1" id="money" xmlns="http://www.w3.org/2000/svg" xmlns:xlink="http://www.w3.org/1999/xlink" x="0px" y="0px"
	 viewBox="0 0 128 128" enable-background="new 0 0 128 128" xml:space="preserve">
<circle fill="#FFB115" cx="63.999" cy="63.937" r="63.937"/>
<path fill="#2A5083" d="M100.555,35.125c0-3.663-2.997-6.66-6.66-6.66H30.402c-4.645,0-8.445,3.8-8.445,8.445v39.747h78.598V45.316
	V35.125z"/>
<path fill="#153A56" d="M89.189,28.465h-6.957l-1.476,1.598l-1.57-1.598H30.402c-4.645,0-8.445,3.8-8.445,8.445
	s3.8,8.445,8.445,8.445h58.788c4.645,0,8.445-3.8,8.445-8.445S93.834,28.465,89.189,28.465z"/>
<path fill="#153A56" d="M96.013,28.465H77.964L73.68,76.657h28.994V45.316V35.125C102.674,31.462,99.676,28.465,96.013,28.465z"/>
<path fill="#4AC6C6" d="M80.756,30.063l-0.952-1.598l0,0l-4.171-7.001c-1.19-1.997-3.762-2.667-5.775-1.506l-14.745,8.507l0,0
	l-28.06,16.189c1.029,0.448,2.16,0.7,3.349,0.7h1.312h57.476h0.678L80.756,30.063z"/>
<path fill="#2A5083" d="M26.957,102.057h74.191c2.75,0,5-2.25,5-5V50.354c0-2.75-2.25-5-5-5H26.957c-2.75,0-5,2.25-5,5v46.702
	C21.957,99.807,24.207,102.057,26.957,102.057z"/>
<path fill="#153A56" d="M89.033,83.983h18.699c1.65,0,3-1.35,3-3V64.356c0-1.65-1.35-3-3-3H89.033c-4.671,0-8.493,3.822-8.493,8.493
	v5.64C80.54,80.161,84.362,83.983,89.033,83.983z"/>
<circle fill="#FFB115" cx="92.472" cy="72.669" r="5.162"/>
<circle fill="#345E8C" cx="60.175" cy="72.669" r="12.71"/>
<path opacity="0.5" fill="#FFFFFF" d="M82.366,44.921L72.013,27.569c-0.445-0.746-1.42-0.993-2.167-0.547l-8.902,5.311
	c-0.746,0.445-0.993,1.42-0.547,2.167c0.445,0.746,1.42,0.993,2.167,0.547l7.545-4.502l8.836,14.809h3.592
	C82.499,45.206,82.448,45.059,82.366,44.921z"/>
<path opacity="0.5" fill="#FFFFFF" d="M62.323,45.354c-1.727-3.975-5.685-6.758-10.296-6.758c-4.611,0-8.568,2.782-10.296,6.758
	H62.323z"/>
<path fill="#3EB7B3" d="M79.822,28.496l10.285-2.685c2.271-0.593,4.593,0.767,5.186,3.039l4.31,16.505H89.18L79.822,28.496z"/>
<path opacity="0.5" fill="#FFFFFF" d="M93.818,45.354l-3.49-12.587c-0.232-0.838-1.108-1.333-1.945-1.101l-5.847,1.621l1.578,2.842
	l3.591-0.996l2.834,10.22H93.818z"/>
<polygon opacity="0.1" fill="#153A56" points="85.941,26.898 91.651,45.354 89.18,45.354 79.822,28.496 "/>
<rect x="27.052" y="41.975" opacity="0.1" fill="#153A56" width="73.503" height="4.479"/>
</svg>
