<?xml version="1.0" encoding="utf-8"?>
<!-- Generator: Adobe Illustrator 18.1.1, SVG Export Plug-In . SVG Version: 6.00 Build 0)  -->
<svg version="1.1" id="Nature" xmlns="http://www.w3.org/2000/svg" xmlns:xlink="http://www.w3.org/1999/xlink" x="0px" y="0px"
	 viewBox="0 0 128 128" enable-background="new 0 0 128 128" xml:space="preserve">
<path fill="#59AFE1" d="M64,0.1C28.6,0.1,0,28.7,0,64c0,7.1,1.2,14,3.3,20.4l0.7,0l32.2-54.4c2.1-3.5,7.1-3.5,9.2,0L73,76.8l4-6.8
	c0,0,0,0,0,0l14.2-23.9c1.5-2.6,5.3-2.6,6.9,0l14.4,24.4c0,0,0,0,0,0l9.8,16.6c0.3,0.5,0.5,1.1,0.5,1.7l0,0
	c2.9-7.3,5.1-16.3,5.1-24.7C127.9,28.7,99.3,0.1,64,0.1z"/>
<path fill="#FFB115" d="M59.3,53c4.4-1.8,7.5-6,7.5-11c0-6.6-5.3-11.9-11.9-11.9c-2.9,0-5.5,1-7.5,2.7L59.3,53z"/>
<path fill="#E3F5FC" d="M64.1,60.7L61,63.8c-0.8,0.8-2.1,0.8-2.9,0l-3.3-3.3c-0.8-0.8-2.1-0.8-2.9,0l-3.7,3.7
	c-0.8,0.8-2.1,0.8-2.9,0l-3.3-3.3c-0.8-0.8-2.1-0.8-2.9,0l-3,3c-0.8,0.8-2.1,0.8-2.9,0L30.2,61c-0.8-0.8-2.1-0.8-2.9,0l-2.8,2.8
	c-0.8,0.8-2.1,0.8-2.9,0l-3.2-3.2c-0.2-0.2-0.4-0.3-0.6-0.4L3.4,84.4c8.2,24.5,30.9,42.4,57.9,43.5h2.5h0h2.8
	c11.5-0.5,22.2-4,31.4-9.8L64.1,60.7z"/>
<path opacity="0.2" fill="#39A9E2" d="M78.2,67.1l-27.1,45.7v13.9c4.1,0.8,8.4,1.3,12.8,1.3c15.8,0,30.2-5.7,41.3-15.2L78.2,67.1z"
	/>
<path fill="#B1D7E5" d="M122.3,86.1l-10.4-17.6c-0.5,0.1-0.9,0.2-1.2,0.6l-3.7,3.7c-0.8,0.8-2.1,0.8-2.9,0l-3.3-3.3
	c-0.8-0.8-2.1-0.8-2.9,0l-3,3c-0.8,0.8-2.1,0.8-2.9,0L89,69.5c-0.8-0.8-2.1-0.8-2.9,0l-2.8,2.8c-0.8,0.8-2.1,0.8-2.9,0l-3.2-3.2
	c0,0-0.1-0.1-0.2-0.1l-30.4,51.3c-1.4,2.3-0.1,5.3,2.5,5.9c3.9,0.9,7.9,1.5,12.1,1.7h2.6h2.9c25-1,46.3-16.5,55.9-38.3
	C123.1,88.5,122.9,87.1,122.3,86.1z"/>
<path opacity="0.4" fill="#FFFFFF" d="M72.3,22.2H29.2c-4.3,0-7.8,3.5-7.8,7.8s3.5,7.8,7.8,7.8h43.1c4.3,0,7.8-3.5,7.8-7.8
	S76.6,22.2,72.3,22.2z"/>
<path fill="#CEE6F3" d="M64.2,60.8l-3.1,3.1c-0.8,0.8-2.1,0.8-2.9,0l-3.3-3.3c-0.8-0.8-2.1-0.8-2.9,0l-3.7,3.7
	c-0.8,0.8-2.1,0.8-2.9,0L42,60.9c-0.3-0.3-0.8-0.5-1.2-0.6v63.2c6.4,2.5,13.4,4.1,20.7,4.4H64h0h2.9c11.5-0.5,22.2-4,31.3-9.8
	L64.2,60.8z"/>
<path fill="#FFFFFF" d="M98.1,45.1c-1.5-2.6-5.3-2.6-6.9,0L76.6,69.7c0.2,0.1,0.4,0.2,0.6,0.4l3.2,3.2c0.8,0.8,2.1,0.8,2.9,0
	l2.8-2.8c0.8-0.8,2.1-0.8,2.9,0l2.9,2.9c0.8,0.8,2.1,0.8,2.9,0l3-3c0.8-0.8,2.1-0.8,2.9,0l3.3,3.3c0.8,0.8,2.1,0.8,2.9,0l3.7-3.7
	c0.5-0.5,1.2-0.7,1.9-0.6L98.1,45.1z"/>
<path fill="#FFFFFF" d="M36.2,29.1l-18.9,32c0.4,0.1,0.8,0.2,1.1,0.5l3.2,3.2c0.8,0.8,2.1,0.8,2.9,0l2.8-2.8c0.8-0.8,2.1-0.8,2.9,0
	l2.9,2.9c0.8,0.8,2.1,0.8,2.9,0l3-3c0.8-0.8,2.1-0.8,2.9,0l3.3,3.3c0.8,0.8,2.1,0.8,2.9,0l3.7-3.7c0.8-0.8,2.1-0.8,2.9,0l3.3,3.3
	c0.8,0.8,2.1,0.8,2.9,0l3.2-3.2c0,0,0.1-0.1,0.1-0.1L44.6,28.1C42.3,25.6,38.1,26,36.2,29.1z"/>
</svg>
