<?xml version="1.0" encoding="utf-8"?>
<!-- Generator: Adobe Illustrator 18.1.1, SVG Export Plug-In . SVG Version: 6.00 Build 0)  -->
<svg version="1.1" id="Call_Centre" xmlns="http://www.w3.org/2000/svg" xmlns:xlink="http://www.w3.org/1999/xlink" x="0px"
	 y="0px" viewBox="0 0 128 128" enable-background="new 0 0 128 128" xml:space="preserve">
<path fill="#4AC6C6" d="M64.119,0.143c-35.277,0-63.875,28.598-63.875,63.875c0,23.972,13.205,44.86,32.739,55.786l62.271,0.001
	c19.534-10.926,32.74-31.814,32.74-55.786C127.994,28.741,99.396,0.143,64.119,0.143z"/>
<path fill="#2A5083" d="M90.421,17.732H37.816c-5.855,0-10.646,4.791-10.646,10.646v87.601c1.88,1.346,3.837,2.593,5.861,3.733
	l62.256,0.156c1.994-1.11,3.923-2.324,5.78-3.634V28.378C101.067,22.523,96.277,17.732,90.421,17.732z"/>
<path fill="#FFFFFF" d="M95.247,39.456H32.99v80.337c9.212,5.153,19.823,8.101,31.129,8.101s21.917-2.949,31.129-8.102V39.456z"/>
<circle fill="#FFBDAE" cx="64.119" cy="71.356" r="23.112"/>
<path fill="#FFFFFF" d="M111.397,50.439c7.273,9.166,7.273,22.21,0,31.376c-1.005,1.269-2.64,1.531-3.44,0.694l0,0
	c-0.804-0.839-0.673-2.289,0.132-3.312c6.059-7.636,6.059-18.504,0-26.14c-0.805-1.023-0.936-2.473-0.132-3.312l0,0
	C108.756,48.908,110.392,49.17,111.397,50.439z"/>
<path fill="#FFFFFF" d="M17.015,50.439c-7.273,9.166-7.273,22.21,0,31.376c1.005,1.269,2.64,1.531,3.44,0.694h0
	c0.804-0.839,0.673-2.289-0.132-3.312c-6.059-7.636-6.059-18.504,0-26.14c0.805-1.023,0.936-2.473,0.132-3.312h0
	C19.655,48.908,18.019,49.17,17.015,50.439z"/>
<path fill="#1B4068" d="M79.224,33.402H49.051c-1.031,0-1.875-0.844-1.875-1.875v-1.24c0-1.031,0.844-1.875,1.875-1.875h30.173
	c1.031,0,1.875,0.844,1.875,1.875v1.24C81.099,32.558,80.256,33.402,79.224,33.402z"/>
<path fill="#FF4E4A" d="M70.611,71.832H57.664c-0.276,0-0.5,0.224-0.5,0.5c0,2.46,1.274,4.622,3.198,5.864
	c0.019,0.012,0.038,0.024,0.057,0.036h0.014c1.074,0.676,2.342,1.073,3.705,1.073c1.367,0,2.639-0.399,3.715-1.079l0.004,0.006
	c1.956-1.235,3.255-3.416,3.255-5.9C71.111,72.056,70.887,71.832,70.611,71.832z"/>
<circle fill="#333333" cx="54.089" cy="65.934" r="2.528"/>
<circle fill="#333333" cx="74.185" cy="65.934" r="2.528"/>
<path fill="#4AC6C6" d="M68.852,115.832h11.864c1.1,0,2-0.9,2-2v-10.953c0-1.1-0.9-2-2-2H68.852c-1.1,0-2,0.9-2,2v10.953
	C66.852,114.932,67.752,115.832,68.852,115.832z"/>
<path fill="#FF4E4A" d="M47.56,115.832h11.864c1.1,0,2-0.9,2-2v-10.953c0-1.1-0.9-2-2-2H47.56c-1.1,0-2,0.9-2,2v10.953
	C45.56,114.932,46.46,115.832,47.56,115.832z"/>
</svg>
