<?xml version="1.0" encoding="UTF-8" standalone="no"?>
<svg width="16px" height="16px" viewBox="0 0 16 16" version="1.1" xmlns="http://www.w3.org/2000/svg" xmlns:xlink="http://www.w3.org/1999/xlink" xmlns:sketch="http://www.bohemiancoding.com/sketch/ns">
    <!-- Generator: Sketch 3.3 (11970) - http://www.bohemiancoding.com/sketch -->
    <title>sales_request</title>
    <desc>Created with Sketch.</desc>
    <defs></defs>
    <g id="Page-1" stroke="none" stroke-width="1" fill="none" fill-rule="evenodd" sketch:type="MSPage">
        <g id="sales_request" sketch:type="MSArtboardGroup">
            <g id="Sales-request" sketch:type="MSLayerGroup" transform="translate(1.000000, 1.000000)">
                <path d="M13,14 L1,14 C0.448,14 0,13.552 0,13 L0,1 C0,0.448 0.448,0 1,0 L13,0 C13.552,0 14,0.448 14,1 L14,13 C14,13.552 13.552,14 13,14" id="Fill-1" fill="#67AB49" sketch:type="MSShapeGroup"></path>
                <path d="M6,10.91561 C5.73967183,10.8659109 5.49907366,10.7941437 5.278,10.7 C4.805,10.5 4.38,10.128 4,9.586 L5.009,8.807 C5.258,9.12 5.533,9.37 5.831,9.554 C6.129,9.738 6.506,9.83 6.963,9.83 C7.157,9.83 7.355,9.808 7.557,9.766 C7.757,9.722 7.939,9.652 8.102,9.554 C8.265,9.456 8.394,9.334 8.493,9.188 C8.59,9.042 8.639,8.866 8.639,8.66 C8.639,8.453 8.593,8.285 8.5,8.156 C8.409,8.026 8.286,7.915 8.134,7.822 C7.982,7.731 7.808,7.657 7.614,7.603 C7.418,7.549 7.217,7.501 7.011,7.457 C6.653,7.381 6.311,7.294 5.986,7.197 C5.66,7.099 5.375,6.972 5.131,6.814 C4.887,6.658 4.691,6.454 4.545,6.204 C4.399,5.956 4.325,5.635 4.325,5.247 C4.325,4.878 4.407,4.552 4.57,4.27 C4.733,3.988 4.949,3.756 5.221,3.572 C5.45605727,3.41240392 5.71594145,3.28440573 6,3.18996308 L6,3.18996308 L6,2 L8,2 L8,3.09371906 C8.23536999,3.14767268 8.46173822,3.22573144 8.679,3.328 C9.14,3.544 9.501,3.897 9.762,4.384 L8.704,5.084 C8.541,4.813 8.327,4.593 8.061,4.425 C7.795,4.257 7.472,4.172 7.092,4.172 C6.919,4.172 6.743,4.195 6.563,4.238 C6.384,4.281 6.224,4.347 6.083,4.433 C5.942,4.52 5.825,4.631 5.733,4.766 C5.641,4.903 5.595,5.056 5.595,5.229 C5.595,5.392 5.646,5.531 5.75,5.645 C5.852,5.759 5.994,5.858 6.173,5.945 C6.352,6.032 6.558,6.108 6.791,6.173 C7.025,6.237 7.266,6.292 7.516,6.335 C7.852,6.4 8.172,6.485 8.476,6.587 C8.78,6.69 9.046,6.829 9.273,7.002 C9.501,7.175 9.681,7.392 9.811,7.652 C9.941,7.912 10.006,8.231 10.006,8.611 C10.006,9.045 9.919,9.413 9.746,9.717 C9.572,10.02 9.341,10.267 9.054,10.456 C8.766,10.646 8.441,10.784 8.077,10.87 C8.05137794,10.8762114 8.02571104,10.8821936 8,10.8879481 L8,12 L6,12 L6,10.91561 Z" id="Fill-2" fill="#FFFFFF" sketch:type="MSShapeGroup"></path>
            </g>
        </g>
    </g>
</svg>