<?xml version="1.0" encoding="utf-8"?>
<!-- Generator: Adobe Illustrator 18.1.1, SVG Export Plug-In . SVG Version: 6.00 Build 0)  -->
<svg version="1.1" id="Settings" xmlns="http://www.w3.org/2000/svg" xmlns:xlink="http://www.w3.org/1999/xlink" x="0px" y="0px"
	 viewBox="0 0 128 128" enable-background="new 0 0 128 128" xml:space="preserve">
<circle fill="#FF4E4A" cx="64.033" cy="64" r="63.875"/>
<path fill="#2A5083" d="M94.578,101.289H92.42c-1.795,0-3.263-1.468-3.263-3.263V33.537c0-1.795,1.468-3.263,3.263-3.263h2.158
	c1.795,0,3.263,1.468,3.263,3.263v64.489C97.842,99.82,96.373,101.289,94.578,101.289z"/>
<path fill="#2A5083" d="M34.252,101.289h-2.158c-1.795,0-3.263-1.468-3.263-3.263V33.537c0-1.795,1.468-3.263,3.263-3.263h2.158
	c1.795,0,3.263,1.468,3.263,3.263v64.489C37.515,99.82,36.047,101.289,34.252,101.289z"/>
<rect x="28.83" y="68.311" fill="#153A56" width="8.685" height="7.763"/>
<path fill="#FFFFFF" d="M33.173,70.776L33.173,70.776c-6.831,0-12.42-5.589-12.42-12.42v0c0-6.831,5.589-12.42,12.42-12.42h0
	c6.831,0,12.42,5.589,12.42,12.42v0C45.593,65.187,40.004,70.776,33.173,70.776z"/>
<path opacity="0.2" fill="#2A5083" d="M38.021,60.881h-9.697c-0.871,0-1.583-0.712-1.583-1.583V58.25
	c0-0.871,0.712-1.583,1.583-1.583h9.697c0.871,0,1.583,0.712,1.583,1.583v1.047C39.605,60.168,38.892,60.881,38.021,60.881z"/>
<rect x="89.157" y="85.307" fill="#153A56" width="8.685" height="7.763"/>
<path fill="#FFFFFF" d="M93.499,87.773L93.499,87.773c-6.831,0-12.42-5.589-12.42-12.42v0c0-6.831,5.589-12.42,12.42-12.42h0
	c6.831,0,12.42,5.589,12.42,12.42v0C105.919,82.183,100.33,87.773,93.499,87.773z"/>
<path opacity="0.2" fill="#2A5083" d="M98.348,77.877h-9.697c-0.871,0-1.583-0.712-1.583-1.583v-1.047
	c0-0.871,0.713-1.583,1.583-1.583h9.697c0.871,0,1.583,0.713,1.583,1.583v1.047C99.931,77.165,99.219,77.877,98.348,77.877z"/>
<path fill="#2A5083" d="M64.415,101.289h-2.158c-1.795,0-3.263-1.468-3.263-3.263V33.537c0-1.795,1.468-3.263,3.263-3.263h2.158
	c1.795,0,3.263,1.468,3.263,3.263v64.489C67.678,99.82,66.21,101.289,64.415,101.289z"/>
<rect x="58.974" y="40.055" fill="#153A56" width="8.685" height="7.763"/>
<path fill="#FFFFFF" d="M63.316,42.521L63.316,42.521c-6.831,0-12.42-5.589-12.42-12.42v0c0-6.831,5.589-12.42,12.42-12.42h0
	c6.831,0,12.42,5.589,12.42,12.42v0C75.736,36.932,70.147,42.521,63.316,42.521z"/>
<path opacity="0.2" fill="#2A5083" d="M68.165,32.626h-9.697c-0.871,0-1.583-0.712-1.583-1.583v-1.047
	c0-0.871,0.712-1.583,1.583-1.583h9.697c0.871,0,1.583,0.712,1.583,1.583v1.047C69.748,31.913,69.036,32.626,68.165,32.626z"/>
</svg>
