<?xml version="1.0" encoding="utf-8"?>
<!-- Generator: Adobe Illustrator 18.1.1, SVG Export Plug-In . SVG Version: 6.00 Build 0)  -->
<svg version="1.1" id="support" xmlns="http://www.w3.org/2000/svg" xmlns:xlink="http://www.w3.org/1999/xlink" x="0px" y="0px"
	 viewBox="0 0 128 128" enable-background="new 0 0 128 128" xml:space="preserve">
<circle fill="#59AFE1" cx="64.012" cy="63.943" r="64.012"/>
<path fill="#EBF2F9" d="M25.639,54.72c-3.294-3.414-5.33-8.051-5.33-13.171c0-10.485,8.499-18.984,18.984-18.984
	c5.469,0,10.384,2.326,13.849,6.028l1.642-1.56c-3.877-4.136-9.374-6.735-15.49-6.735c-11.737,0-21.251,9.514-21.251,21.251
	c0,5.724,2.275,10.91,5.955,14.731L25.639,54.72z"/>
<path fill="#EBF2F9" d="M100.807,54.815c3.294-3.414,5.33-8.051,5.33-13.171c0-10.485-8.499-18.984-18.984-18.984
	c-5.469,0-10.384,2.326-13.849,6.028l-1.642-1.56c3.877-4.136,9.374-6.735,15.49-6.735c11.737,0,21.251,9.514,21.251,21.251
	c0,5.724-2.275,10.91-5.955,14.731L100.807,54.815z"/>
<path fill="#EBF2F9" d="M100.807,75.024c3.294,3.414,5.33,8.051,5.33,13.171c0,10.485-8.499,18.984-18.984,18.984
	c-5.469,0-10.384-2.326-13.849-6.028l-1.642,1.56c3.877,4.136,9.374,6.735,15.49,6.735c11.737,0,21.251-9.514,21.251-21.251
	c0-5.724-2.275-10.91-5.955-14.731L100.807,75.024z"/>
<path fill="#EBF2F9" d="M26.772,74.929c-3.294,3.414-5.33,8.051-5.33,13.171c0,10.485,8.499,18.984,18.984,18.984
	c5.469,0,10.384-2.326,13.849-6.028l1.642,1.56c-3.877,4.136-9.374,6.735-15.49,6.735c-11.737,0-21.251-9.514-21.251-21.251
	c0-5.724,2.275-10.91,5.955-14.731L26.772,74.929z"/>
<path fill="#FF4E4A" d="M30.671,31.558c-18.114,18.114-18.114,47.482,0,65.596s47.482,18.114,65.596,0s18.114-47.482,0-65.595
	S48.784,13.444,30.671,31.558z M80.238,81.125c-9.261,9.261-24.277,9.261-33.539,0s-9.261-24.277,0-33.539
	c9.261-9.261,24.277-9.261,33.539,0S89.499,71.864,80.238,81.125z"/>
<g>
	<path fill="#FFFFFF" d="M46.699,81.125c-1.867-1.867-3.338-3.974-4.452-6.214L25.776,91.382c1.452,2.02,3.078,3.955,4.895,5.771
		c2.292,2.292,4.766,4.292,7.373,6.004l16.739-16.739C51.84,85.261,49.078,83.504,46.699,81.125z"/>
	<path fill="#FFFFFF" d="M80.238,47.587c2.379,2.379,4.136,5.14,5.293,8.084l16.739-16.739c-1.712-2.607-3.712-5.081-6.004-7.373
		c-1.817-1.817-3.751-3.442-5.771-4.895L74.024,43.134C76.264,44.248,78.371,45.72,80.238,47.587z"/>
	<path fill="#FFFFFF" d="M25.219,38.128l16.598,16.598c1.15-2.587,2.761-5.018,4.882-7.139s4.553-3.732,7.139-4.882L37.241,26.107
		c-2.311,1.588-4.516,3.397-6.57,5.451S26.808,35.817,25.219,38.128z"/>
	<path fill="#FFFFFF" d="M101.718,90.583L85.12,73.986c-1.15,2.587-2.761,5.018-4.882,7.139s-4.553,3.732-7.139,4.882l16.598,16.598
		c2.311-1.588,4.516-3.397,6.57-5.451S100.129,92.894,101.718,90.583z"/>
</g>
<path opacity="0.2" fill="#C92020" d="M63.469,31.039c-18.4,0-33.316,14.916-33.316,33.316s14.916,33.316,33.316,33.316
	s33.316-14.916,33.316-33.316S81.869,31.039,63.469,31.039z M80.238,81.125c-9.261,9.261-24.277,9.261-33.539,0
	c-9.261-9.261-9.261-24.277,0-33.539c9.261-9.261,24.277-9.261,33.539,0S89.499,71.864,80.238,81.125z"/>
<g>
	<path opacity="0.07" fill="#FFFFFF" d="M63.468,28.276c-19.926,0-36.079,16.153-36.079,36.079s16.153,36.079,36.079,36.079
		s36.079-16.153,36.079-36.079S83.395,28.276,63.468,28.276z M63.469,97.672c-18.4,0-33.316-14.916-33.316-33.316
		s14.916-33.316,33.316-33.316s33.316,14.916,33.316,33.316S81.869,97.672,63.469,97.672z"/>
</g>
</svg>
