<?xml version="1.0" encoding="utf-8"?>
<!-- Generator: Adobe Illustrator 18.1.1, SVG Export Plug-In . SVG Version: 6.00 Build 0)  -->
<svg version="1.1" id="Bird" xmlns="http://www.w3.org/2000/svg" xmlns:xlink="http://www.w3.org/1999/xlink" x="0px" y="0px"
	 viewBox="0 0 128 128" enable-background="new 0 0 128 128" xml:space="preserve">
<circle fill="#895ECC" cx="64.033" cy="64" r="63.75"/>
<path fill="#4AC6C6" d="M70.954,21.081c-3.161-0.749-6.455-1.157-9.845-1.157c-23.517,0-42.582,19.065-42.582,42.582
	c0,23.517,19.065,42.582,42.582,42.582c3.39,0,6.683-0.408,9.845-1.157V21.081z"/>
<path fill="#E5830E" d="M69.626,104.236c15.777-3.203,28.377-15.131,32.566-30.526l-32.566,1.762V104.236z"/>
<path fill="#FFFFFF" d="M69.626,31.085c-1.32-0.154-2.656-0.254-4.017-0.254c-18.982,0-34.37,15.388-34.37,34.37
	c0,18.982,15.388,34.37,34.37,34.37c1.361,0,2.697-0.1,4.017-0.254V31.085z"/>
<circle fill="#2A5083" cx="52.358" cy="56.634" r="8.751"/>
<path fill="#FFBD17" d="M69.626,75.471c0,0,13.32,13.989,32.569-1.762c0,0,6.236-6.214,14.25,1.204
	c0.883,0.818,2.307,0.103,2.21-1.096c-0.909-11.293-7.135-45.456-49.029-53.04V75.471z"/>
<ellipse transform="matrix(0.9606 0.2781 -0.2781 0.9606 11.807 -20.9558)" fill="#F2900F" cx="79.771" cy="31.141" rx="4.172" ry="2.12"/>
</svg>
