<?xml version="1.0" encoding="utf-8"?>
<!-- Generator: Adobe Illustrator 18.1.1, SVG Export Plug-In . SVG Version: 6.00 Build 0)  -->
<svg version="1.1" id="Cloud" xmlns="http://www.w3.org/2000/svg" xmlns:xlink="http://www.w3.org/1999/xlink" x="0px" y="0px"
	 viewBox="0 0 128 128" enable-background="new 0 0 128 128" xml:space="preserve">
<circle fill="#59AFE1" cx="63.973" cy="63.891" r="63.973"/>
<path fill="#FFFFFF" d="M101.421,73.861c0-8.648-6.396-15.784-14.713-16.984c0.888-2.584,1.394-5.346,1.394-8.232
	c0-10.606-7.865-20.692-17.288-24.607c-6.89,1.692-12.675,6.192-16.062,12.228c-2.875-3.357-7.137-5.492-11.903-5.492
	c-8.658,0-15.677,7.019-15.677,15.677c0,2.05,0.405,4.003,1.121,5.799c-9.029,1.742-15.851,9.677-15.851,19.214
	c0,10.813,8.766,19.579,19.579,19.579h56.238C95.569,88.697,101.421,81.607,101.421,73.861z"/>
<path fill="#FF4E4A" d="M70.35,64.699H55.753c-0.311,0-0.564,0.252-0.564,0.564c0,2.773,1.436,5.211,3.605,6.611
	c0.021,0.014,0.043,0.027,0.064,0.041h0.016c1.211,0.762,2.64,1.21,4.177,1.21c1.541,0,2.975-0.45,4.188-1.217l0.004,0.007
	c2.205-1.393,3.67-3.851,3.67-6.652C70.914,64.952,70.661,64.699,70.35,64.699z"/>
<circle fill="#333333" cx="51.722" cy="58.05" r="2.85"/>
<circle fill="#333333" cx="74.379" cy="58.05" r="2.85"/>
<g>
	<path fill="#E4F2F9" d="M100.817,56.876c0.888-2.584,1.394-5.346,1.394-8.232c0-14-11.349-25.35-25.35-25.35
		c-2.628,0-5.156,0.413-7.539,1.157c10.295,3.224,17.765,12.835,17.765,24.193c0,2.886-0.505,5.648-1.394,8.232
		c8.316,1.2,14.713,8.336,14.713,16.984c0,9.489-7.692,17.182-17.182,17.182h15.123c9.489,0,17.182-7.692,17.182-17.182
		C115.53,65.212,109.133,58.076,100.817,56.876z"/>
</g>
</svg>
