<?xml version="1.0" encoding="utf-8"?>
<!-- Generator: Adobe Illustrator 18.1.1, SVG Export Plug-In . SVG Version: 6.00 Build 0)  -->
<svg version="1.1" id="code" xmlns="http://www.w3.org/2000/svg" xmlns:xlink="http://www.w3.org/1999/xlink" x="0px" y="0px"
	 viewBox="0 0 128 128" enable-background="new 0 0 128 128" xml:space="preserve">
<path fill="#FF4E4A" d="M30.5,33.5l5.7-4.2l80.5-0.8l0.4-0.4C105.5,11.2,86,0,63.9,0c-35.3,0-64,28.7-64,64
	c0,22.2,11.3,41.8,28.6,53.3l0,0L30.5,33.5z"/>
<path fill="#EBF2F9" d="M125.3,45.7c-1.8-6.2-4.6-12-8.1-17.2H35.2c-3.7,0-6.7,3-6.7,6.7v10.5H125.3z"/>
<circle fill="#FF4E4A" cx="40.6" cy="37.3" r="3"/>
<circle fill="#FFB522" cx="49.2" cy="37.3" r="3"/>
<circle fill="#00D150" cx="57.7" cy="37.3" r="3"/>
<path fill="#2A5083" d="M127.9,64c0-6.5-1-12.7-2.8-18.6H48.7h-2h-7.2h-2h-7h-2v71.9c7,4.7,14.9,8,23.5,9.6c0,0,0.1,0,0.1,0
	c1.3,0.2,2.7,0.5,4,0.6c0.3,0,0.5,0.1,0.8,0.1c0.5,0.1,1,0.1,1.5,0.1c0.5,0,1,0.1,1.5,0.1c0.4,0,0.8,0.1,1.3,0.1
	c0.9,0,1.7,0.1,2.6,0.1c0.1,0,0.2,0,0.3,0C99.3,128,127.9,99.3,127.9,64z"/>
<path fill="#EBF2F9" d="M77.9,68.2H41.6c-2.2,0-4-1.8-4-4v0c0-2.2,1.8-4,4-4h36.4c2.2,0,4,1.8,4,4v0C81.9,66.4,80.1,68.2,77.9,68.2z
	"/>
<path fill="#59AFE1" d="M95.4,68.2h-3.7c-2.2,0-4-1.8-4-4v0c0-2.2,1.8-4,4-4h3.7c2.2,0,4,1.8,4,4v0C99.4,66.4,97.6,68.2,95.4,68.2z"
	/>
<path fill="#FF4E4A" d="M53.8,85.7H41.6c-2.2,0-4-1.8-4-4v0c0-2.2,1.8-4,4-4h12.2c2.2,0,4,1.8,4,4v0C57.7,83.9,55.9,85.7,53.8,85.7z
	"/>
<path fill="#EBF2F9" d="M65.5,103.2h-24c-2.2,0-4-1.8-4-4v0c0-2.2,1.8-4,4-4h24c2.2,0,4,1.8,4,4v0C69.5,101.4,67.7,103.2,65.5,103.2
	z"/>
<path fill="#FF4E4A" d="M82.1,103.2h-2.6c-2.2,0-4-1.8-4-4v0c0-2.2,1.8-4,4-4h2.6c2.2,0,4,1.8,4,4v0
	C86.1,101.4,84.3,103.2,82.1,103.2z"/>
<path fill="#4AC6C6" d="M104.4,85.7H67.7c-2.2,0-4-1.8-4-4v0c0-2.2,1.8-4,4-4h36.6c2.2,0,4,1.8,4,4v0
	C108.4,83.9,106.6,85.7,104.4,85.7z"/>
</svg>
