<?xml version="1.0" encoding="utf-8"?>
<!-- Generator: Adobe Illustrator 18.1.1, SVG Export Plug-In . SVG Version: 6.00 Build 0)  -->
<svg version="1.1" id="design" xmlns="http://www.w3.org/2000/svg" xmlns:xlink="http://www.w3.org/1999/xlink" x="0px" y="0px"
	 viewBox="0 0 128 128" enable-background="new 0 0 128 128" xml:space="preserve">
<circle fill="#FFB115" cx="64" cy="63.83" r="63.885"/>
<path fill="#2A5083" d="M42.242,111.759L42.242,111.759c-2.354,0-4.28-1.926-4.28-4.28v-85.31c0-2.354,1.926-4.28,4.28-4.28h0
	c2.354,0,4.28,1.926,4.28,4.28v85.31C46.522,109.833,44.596,111.759,42.242,111.759z"/>
<path fill="#2A5083" d="M85.758,111.759L85.758,111.759c-2.354,0-4.28-1.926-4.28-4.28v-85.31c0-2.354,1.926-4.28,4.28-4.28h0
	c2.354,0,4.28,1.926,4.28,4.28v85.31C90.038,109.833,88.112,111.759,85.758,111.759z"/>
<path fill="#2A5083" d="M37.962,97.996v-2.128c0-1.769,1.447-3.216,3.216-3.216h45.645c1.769,0,3.216,1.447,3.216,3.216v2.128
	c0,1.769-1.447,3.216-3.216,3.216H41.178C39.409,101.211,37.962,99.764,37.962,97.996z"/>
<path fill="#FFFFFF" d="M102.938,31.115c-0.224-2.841-2.595-5.033-5.445-5.033H71.283H56.717H30.508
	c-2.85,0-5.221,2.191-5.445,5.033l-3.69,46.734c-0.251,3.176,2.259,5.892,5.445,5.892h29.899h14.566h29.898
	c3.186,0,5.696-2.716,5.445-5.892L102.938,31.115z"/>
<path fill="#4AC6C6" d="M32.879,75.424H95.54c2.371,0,3.559-2.867,1.882-4.544L84.381,57.839c-1.022-1.022-2.672-1.042-3.718-0.045
	l-9.039,8.608c-1.024,0.975-2.632,0.98-3.661,0.01L50.668,50.119c-1.018-0.959-2.606-0.967-3.633-0.017L31.439,64.53
	c-0.505,0.467-0.81,1.112-0.85,1.799l-0.367,6.278C30.132,74.135,31.347,75.424,32.879,75.424z"/>
<circle fill="#FFB115" cx="75.137" cy="40.498" r="7.738"/>
<rect x="37.962" y="83.742" fill="#153A56" width="8.56" height="8.91"/>
<rect x="81.478" y="83.742" fill="#153A56" width="8.56" height="8.91"/>
</svg>
