<?xml version="1.0" encoding="utf-8"?>
<!-- Generator: Adobe Illustrator 18.1.1, SVG Export Plug-In . SVG Version: 6.00 Build 0)  -->
<svg version="1.1" id="koala" xmlns="http://www.w3.org/2000/svg" xmlns:xlink="http://www.w3.org/1999/xlink" x="0px" y="0px"
	 viewBox="0 0 128 128" enable-background="new 0 0 128 128" xml:space="preserve">
<circle fill="#59AFE1" cx="64" cy="63.958" r="63.958"/>
<circle fill="#C0E0ED" cx="36.752" cy="41.942" r="19.148"/>
<circle fill="#FFFFFF" cx="36.752" cy="41.942" r="11.347"/>
<circle fill="#C0E0ED" cx="91.248" cy="41.942" r="19.148"/>
<circle fill="#FFFFFF" cx="91.248" cy="41.942" r="11.347"/>
<path fill="#C9E6F4" d="M103.833,75.564l-7.177-28.457c-1.209-5.429-6.025-9.291-11.588-9.291H66.304h-4.266H43.274
	c-5.562,0-10.379,3.862-11.588,9.291l-7.177,28.457c-3.303,14.83,7.981,28.904,23.175,28.904h14.354h4.266h14.354
	C95.852,104.467,107.136,90.394,103.833,75.564z"/>
<circle fill="#FFFFFF" cx="45.733" cy="65.823" r="8.827"/>
<circle fill="#FFFFFF" cx="82.468" cy="65.823" r="8.827"/>
<circle fill="#2A5083" cx="45.733" cy="65.823" r="4.113"/>
<circle fill="#2A5083" cx="82.468" cy="65.823" r="4.113"/>
<path fill="#2A5083" d="M64.171,62.915c-4.213,0-7.659,3.447-7.659,7.659v2.095v8.6v2.095H71.83v-2.095v-8.6v-2.095
	C71.83,66.362,68.384,62.915,64.171,62.915z"/>
<path fill="#2A5083" d="M87.65,78.449c-0.366-0.842-1.412-1.265-2.268-0.905c-6.583,2.715-13.568,4.093-20.764,4.093
	c-10.418,0-18.29-2.846-21.191-4.07c-0.837-0.349-1.837,0.023-2.241,0.828c-0.216,0.432-0.244,0.938-0.077,1.39
	c0.166,0.448,0.514,0.813,0.958,0.998c3.104,1.305,11.519,4.342,22.577,4.342c7.649,0,15.076-1.465,22.078-4.353
	c0.433-0.179,0.77-0.521,0.948-0.959C87.847,79.37,87.842,78.886,87.65,78.449z"/>
<path opacity="0.1" fill="#2A5083" d="M95.918,99.176c-2.867-12.523-14.752-16.468-14.752-16.468
	c-3.646,9.654,0.004,16.664,4.589,21.271C89.577,103.202,93.035,101.519,95.918,99.176z"/>
<path fill="#4AC6C6" d="M81.258,82.708c0,0,19.933-0.255,23.152,21.759C104.411,104.467,80.663,103.426,81.258,82.708z"/>
<path fill="#31ADAA" d="M96.688,96.974c0.523-0.576,0.48-1.475-0.096-1.998L83.242,82.845c-1.231-0.145-1.986-0.137-1.986-0.137
	c-0.022,0.759-0.002,1.484,0.04,2.191L94.69,97.07C95.266,97.593,96.165,97.55,96.688,96.974z"/>
</svg>
