<?xml version="1.0" encoding="utf-8"?>
<!-- Generator: Adobe Illustrator 18.1.1, SVG Export Plug-In . SVG Version: 6.00 Build 0)  -->
<svg version="1.1" id="Layer_25" xmlns="http://www.w3.org/2000/svg" xmlns:xlink="http://www.w3.org/1999/xlink" x="0px" y="0px"
	 viewBox="0 0 128 128" enable-background="new 0 0 128 128" xml:space="preserve">
<circle fill="#FF4E4A" cx="63.958" cy="64" r="63.917"/>
<path fill="#FFFFFF" d="M96.814,25.996h-65.71c-6.862,0-12.477,5.614-12.477,12.477v12.029h90.664V38.472
	C109.29,31.61,103.676,25.996,96.814,25.996z"/>
<path fill="#2A5083" d="M18.627,50.224v37.457v0.815c0,6.862,5.614,12.477,12.477,12.477h65.71c6.862,0,12.477-5.614,12.477-12.477
	v-0.815V50.224H18.627z"/>
<circle fill="#FF4E4A" cx="33.598" cy="38.67" r="4.575"/>
<circle fill="#FFB115" cx="48.01" cy="38.67" r="4.575"/>
<circle fill="#4AC6C6" cx="62.421" cy="38.67" r="4.575"/>
<path fill="#194063" d="M63.958,62.529"/>
<path fill="#FFFFFF" d="M56.339,76.324l4.164,0.226l-3.187,6.378c-0.517,1.034-0.12,2.291,0.897,2.841h0
	c1.065,0.576,2.395,0.157,2.936-0.926l3.225-6.455l2.482,2.89c0.921,1.073,2.681,0.446,2.716-0.968l0.368-14.793
	c0.035-1.395-1.574-2.196-2.666-1.328l-11.812,9.383C54.349,74.456,54.92,76.247,56.339,76.324z"/>
</svg>
