<?xml version="1.0" encoding="utf-8"?>
<!-- Generator: Adobe Illustrator 18.1.1, SVG Export Plug-In . SVG Version: 6.00 Build 0)  -->
<svg version="1.1" id="notes" xmlns="http://www.w3.org/2000/svg" xmlns:xlink="http://www.w3.org/1999/xlink" x="0px" y="0px"
	 viewBox="0 0 128 128" enable-background="new 0 0 128 128" xml:space="preserve">
<circle fill="#59AFE1" cx="64" cy="64" r="64"/>
<path fill="#FFFFFF" d="M91.1,18H36.6c-4.9,0-8.8,4-8.8,8.8v72.7c0,4.9,4,8.8,8.8,8.8h54.4c4.9,0,8.8-4,8.8-8.8V26.9
	C99.9,22,95.9,18,91.1,18z"/>
<path fill="#D3E0EA" d="M89.1,40.6H43.6c-1.6,0-2.9-1.3-2.9-2.9v0c0-1.6,1.3-2.9,2.9-2.9h45.5c1.6,0,2.9,1.3,2.9,2.9v0
	C92,39.3,90.7,40.6,89.1,40.6z"/>
<path fill="#D3E0EA" d="M89.1,53.5H43.6c-1.6,0-2.9-1.3-2.9-2.9v0c0-1.6,1.3-2.9,2.9-2.9h45.5c1.6,0,2.9,1.3,2.9,2.9v0
	C92,52.2,90.7,53.5,89.1,53.5z"/>
<path fill="#D3E0EA" d="M61.1,66.4H43.6c-1.6,0-2.9-1.3-2.9-2.9v0c0-1.6,1.3-2.9,2.9-2.9h17.5c1.6,0,2.9,1.3,2.9,2.9v0
	C64,65.1,62.7,66.4,61.1,66.4z"/>
<path fill="#2A5083" d="M32.6,92.4h-8.9c-1.6,0-2.9-1.3-2.9-2.9l0,0c0-1.6,1.3-2.9,2.9-2.9h8.9c1.6,0,2.9,1.3,2.9,2.9l0,0
	C35.5,91.1,34.2,92.4,32.6,92.4z"/>
<path fill="#2A5083" d="M32.6,75.2h-8.9c-1.6,0-2.9-1.3-2.9-2.9l0,0c0-1.6,1.3-2.9,2.9-2.9h8.9c1.6,0,2.9,1.3,2.9,2.9l0,0
	C35.5,73.9,34.2,75.2,32.6,75.2z"/>
<path fill="#2A5083" d="M32.6,57.9h-8.9c-1.6,0-2.9-1.3-2.9-2.9v0c0-1.6,1.3-2.9,2.9-2.9h8.9c1.6,0,2.9,1.3,2.9,2.9v0
	C35.5,56.6,34.2,57.9,32.6,57.9z"/>
<path fill="#2A5083" d="M32.6,40.6h-8.9c-1.6,0-2.9-1.3-2.9-2.9v0c0-1.6,1.3-2.9,2.9-2.9h8.9c1.6,0,2.9,1.3,2.9,2.9v0
	C35.5,39.3,34.2,40.6,32.6,40.6z"/>
<path fill="#FF4E4A" d="M98,33.6c-5.2-2.7-10.5-2.9-11.8-0.4l-4.3,8.2l18.8,9.9L105,43C106.3,40.6,103.2,36.3,98,33.6z"/>
<path fill="#D63E3E" d="M105.3,42c0.2-2.5-2.8-6-7.3-8.4l0,0l-6.7,12.7l9.4,4.9l0,0l0.6-1.1L105,43C105.2,42.7,105.3,42.4,105.3,42z
	"/>
<rect x="79.8" y="44.8" transform="matrix(-0.8857 -0.4643 0.4643 -0.8857 148.2384 132.5017)" fill="#EBF2F9" width="21.3" height="6.3"/>
<polygon fill="#FFA821" points="92.1,52.5 85.8,49.2 79.5,45.9 60.6,82 66.9,85.3 73.2,88.6 79.4,91.9 98.4,55.7 "/>
<path fill="#FFD49B" d="M71.9,84.5l-0.2-0.7l-4.8,1.5l-1.5-4.8L60.6,82l-0.1,0.2c-0.2,0.3-0.3,0.7-0.2,1.1L61,93.3l5,2.6L71.9,84.5z
	"/>
<polygon fill="#F2900F" points="92.1,52.4 88.9,50.8 70,86.9 73.2,88.6 79.4,91.8 81.8,87.2 98.3,55.7 98.3,55.7 "/>
<path fill="#E2AD79" d="M69.9,98l8.7-5.1c0.3-0.2,0.6-0.5,0.7-0.8l0.1-0.2l-1.5-4.8l-4.7,1.5l-1.5-4.8l-6.4,11.8
	C65.9,96,69.2,98.4,69.9,98z"/>
<path fill="#173E68" d="M65.3,95.6l-3,5.5c0,0,0,0,0,0c0.1,0.1,0.3,0.2,0.4,0.2c0,0,0,0,0.1,0c0.2,0.1,0.3,0.1,0.5,0.1
	c0,0,0.1,0,0.1,0c0.2,0,0.3,0,0.5,0c0,0,0,0,0.1,0c0.2,0,0.4-0.1,0.6-0.2l5.4-3.2L65.3,95.6z"/>
<path fill="#2A5083" d="M61,93.3l0.4,6.2c0,0.7,0.4,1.2,0.9,1.5l3-5.5L61,93.3z"/>
</svg>
