<?xml version="1.0" encoding="utf-8"?>
<!-- Generator: Adobe Illustrator 18.1.1, SVG Export Plug-In . SVG Version: 6.00 Build 0)  -->
<svg version="1.1" id="Power" xmlns="http://www.w3.org/2000/svg" xmlns:xlink="http://www.w3.org/1999/xlink" x="0px" y="0px"
	 viewBox="0 0 128 128" enable-background="new 0 0 128 128" xml:space="preserve">
<circle fill="#4AC6C6" cx="64.176" cy="64" r="63.758"/>
<path fill="#2A5083" d="M69.84,38.733H22.659c-3.437,0-6.249,2.812-6.249,6.249v34.224c0,3.437,2.812,6.249,6.249,6.249H69.84
	V38.733z"/>
<path fill="#FFFFFF" d="M109.949,73.725H98.375c-1.65,0-3-1.35-3-3V54.572c0-1.65,1.35-3,3-3h11.574c1.65,0,3,1.35,3,3v16.153
	C112.949,72.375,111.599,73.725,109.949,73.725z"/>
<path fill="#FFBD17" d="M100.319,38.733h-0.312h-3.784H95.91H73.936h-0.312H69.84h-0.312v46.721h0.312h3.784h0.312H95.91h0.312
	h3.784h0.312c3.437,0,6.249-2.812,6.249-6.249V44.982C106.568,41.545,103.756,38.733,100.319,38.733z"/>
<path fill="#F2900F" d="M106.255,62.044H69.84h-0.312v23.361h0.312h1.244h0.312h2.227h0.312H95.91h0.312h3.784h0.312
	c3.437,0,6.249-2.812,6.249-6.249V62.044H106.255z"/>
<path fill="#2A5083" d="M88.83,71.588h-1.253c-1.049,0-1.908-0.859-1.908-1.908V54.508c0-1.049,0.859-1.908,1.908-1.908h1.253
	c1.049,0,1.908,0.859,1.908,1.908V69.68C90.738,70.729,89.879,71.588,88.83,71.588z"/>
<path fill="#2A5083" d="M78.71,62.72v-1.253c0-1.049,0.859-1.908,1.908-1.908H95.79c1.049,0,1.908,0.859,1.908,1.908v1.253
	c0,1.049-0.859,1.908-1.908,1.908H80.618C79.569,64.628,78.71,63.77,78.71,62.72z"/>
<path fill="#103449" d="M16.411,62.044v17.112c0,3.437,2.812,6.249,6.249,6.249h46.868V62.044H16.411z"/>
</svg>
