<?xml version="1.0" encoding="utf-8"?>
<!-- Generator: Adobe Illustrator 18.1.1, SVG Export Plug-In . SVG Version: 6.00 Build 0)  -->
<svg version="1.1" id="Refresh" xmlns="http://www.w3.org/2000/svg" xmlns:xlink="http://www.w3.org/1999/xlink" x="0px" y="0px"
	 viewBox="0 0 128 128" enable-background="new 0 0 128 128" xml:space="preserve">
<circle fill="#895ECC" cx="63.875" cy="63.876" r="63.875"/>
<circle fill="#6142AD" cx="80.078" cy="90.901" r="15.576"/>
<circle fill="#6142AD" cx="47.719" cy="35.189" r="15.576"/>
<path fill="#4AC6C6" d="M28.744,77.102c-2.469,0.648-4.896,1.292-7.328,1.919c-1.652,0.426-2.645-0.525-2.22-2.197
	c2.297-9.037,4.613-18.069,6.947-27.096c0.485-1.876,1.715-2.187,3.093-0.786c5.149,5.235,10.277,10.492,15.411,15.742
	c1.353,1.383,2.712,2.76,4.05,4.157c1.257,1.314,0.928,2.595-0.803,3.087c-2.338,0.664-4.687,1.291-7.4,2.035
	c1.322,1.977,2.388,3.911,3.774,5.579c4.596,5.535,10.503,8.653,17.711,9.319c5.493,0.507,10.531-0.814,15.326-3.409
	c4.188-2.267,9.113,0.714,9.004,5.435c-0.051,2.209-1.083,3.97-2.994,5.068c-7.119,4.087-14.786,5.874-22.953,4.873
	c-14.669-1.799-25.057-9.538-31.22-22.962C29.029,77.621,28.893,77.387,28.744,77.102z"/>
<path fill="#FFFFFF" d="M87.743,52.194c-1.811-3.812-4.212-6.889-7.332-9.401c-4.586-3.693-9.875-5.567-15.719-5.703
	c-4.652-0.108-9.058,1.047-13.132,3.343c-1.695,0.955-3.453,1.32-5.328,0.646c-2.428-0.873-3.831-2.649-4.077-5.175
	c-0.243-2.489,0.801-4.5,2.967-5.773c5.006-2.942,10.432-4.698,16.222-5.025c12.164-0.686,22.531,3.352,30.932,12.236
	c2.9,3.066,5.123,6.596,6.824,10.456c0.172,0.389,0.35,0.775,0.546,1.207c2.473-0.656,4.86-1.297,7.252-1.921
	c1.838-0.479,2.765,0.495,2.278,2.407c-1.485,5.834-2.986,11.664-4.475,17.497c-0.769,3.012-1.524,6.027-2.293,9.039
	c-0.206,0.807-0.399,1.822-1.362,1.851c-0.662,0.02-1.499-0.417-1.99-0.914c-6.468-6.542-12.892-13.127-19.317-19.711
	c-1.298-1.33-0.931-2.614,0.899-3.131C82.941,53.471,85.256,52.866,87.743,52.194z"/>
</svg>
