<?xml version="1.0" encoding="utf-8"?>
<!-- Generator: Adobe Illustrator 18.1.1, SVG Export Plug-In . SVG Version: 6.00 Build 0)  -->
<svg version="1.1" id="science" xmlns="http://www.w3.org/2000/svg" xmlns:xlink="http://www.w3.org/1999/xlink" x="0px" y="0px"
	 viewBox="0 0 128 128" enable-background="new 0 0 128 128" xml:space="preserve">
<circle fill="#895ECC" cx="64.072" cy="64.01" r="64.01"/>
<circle fill="#FFFFFF" cx="63.218" cy="68.882" r="40.675"/>
<path fill="#FFFFFF" d="M81.832,41.449H45.294V23.237c0-1.657,1.343-3,3-3h30.538c1.657,0,3,1.343,3,3V41.449z"/>
<circle opacity="0.1" fill="#7F4CBF" cx="63.127" cy="68.882" r="30.804"/>
<path fill="#4AC6C6" d="M72.24,32.878H54.886c-1.657,0-3-1.343-3-3V14.797c0-1.657,1.343-3,3-3H72.24c1.657,0,3,1.343,3,3v15.081
	C75.24,31.535,73.897,32.878,72.24,32.878z"/>
<path fill="#D62121" d="M64.255,68.882c0,0-32.51-15.593-31.688,2.999c0.653,14.784,27.37,11.866,27.37,11.866L64.255,68.882z"/>
<path fill="#FF4E4A" d="M62.085,66.354c17.309-14.458,31.457,4.466,31.457,4.466l0.148,0.195
	C92.594,86.962,79.32,99.56,63.094,99.56c-15.931,0-29.023-12.144-30.53-27.68C33.191,72.369,45.309,80.367,62.085,66.354z"/>
<rect x="50.348" y="20.237" opacity="0.5" fill="#FFFFFF" width="26.575" height="14.892"/>
<circle fill="#FF4E4A" cx="61.798" cy="47.945" r="6.007"/>
<circle fill="#FF4E4A" cx="74.681" cy="53.024" r="3.793"/>
</svg>
