<?xml version="1.0" encoding="utf-8"?>
<!-- Generator: Adobe Illustrator 16.0.4, SVG Export Plug-In . SVG Version: 6.00 Build 0)  -->
<!DOCTYPE svg PUBLIC "-//W3C//DTD SVG 1.1//EN" "http://www.w3.org/Graphics/SVG/1.1/DTD/svg11.dtd">
<svg version="1.1" id="Layer_1" xmlns="http://www.w3.org/2000/svg" xmlns:xlink="http://www.w3.org/1999/xlink" x="0px" y="0px"
	 width="850.389px" height="850.391px" viewBox="0 0 850.389 850.391" enable-background="new 0 0 850.389 850.391"
	 xml:space="preserve">
<g id="Layer_2_1_">
	<g opacity="0.2" enable-background="new    ">
		<circle fill="#3572B0" cx="425.195" cy="425.196" r="425.195"/>
	</g>
	<path fill="#FCD2A4" d="M261.028,495.272c-13.371-3.173-23.349-15.21-23.349-29.536c0-14.328,9.978-26.364,23.349-29.538
		l10.314-11.763v-7.825l194.352,3.085l29.849-33.828h0.303l28.849,32.828l53.657-1.084v6.824h10.343
		c19.909,2.484,35.314,19.459,35.314,40.043s-15.405,37.559-35.314,40.043v1.174H577.94
		c-5.759,79.532-72.091,142.267-153.084,142.267c-81,0-147.342-62.734-153.102-142.267L261.028,495.272z"/>
	<g>
		<path fill="#205081" d="M383.829,472.087c0,10.056-8.147,18.194-18.195,18.194c-10.046,0-18.194-8.139-18.194-18.194
			c0-10.047,8.147-18.195,18.194-18.195C375.681,453.892,383.829,462.04,383.829,472.087"/>
	</g>
	<g>
		<path fill="#205081" d="M507.561,472.087c0,10.056-8.148,18.194-18.195,18.194c-10.046,0-18.202-8.139-18.202-18.194
			c0-10.047,8.156-18.195,18.202-18.195C499.412,453.892,507.561,462.04,507.561,472.087"/>
	</g>
	<path fill="#F6C342" d="M487.972,241.91c0.464-3.154,0.712-6.379,0.712-9.663c0-36.363-29.465-65.828-65.828-65.828
		c-36.354,0-65.845,29.465-65.845,65.828c0,3.892,0.357,7.697,1.005,11.403c-51.293,24.847-86.665,77.402-86.665,138.227v33.034
		h195.79l27.018-35.045l29.209,35.045h54.992v-33.034C578.36,319.595,541.27,265.981,487.972,241.91z"/>
	<g>
		<path fill="none" d="M494.462,398.851l-22.404,29.062H281.351v67.228c0.375,78.816,64.603,142.821,143.504,142.821
			c79.124,0,143.496-64.38,143.496-143.514v-66.535h-49.668L494.462,398.851z"/>
		<path fill="none" d="M480.656,231.187c-0.569-30.294-25.372-54.767-55.801-54.767c-30.438,0-55.249,24.474-55.818,54.769
			c17.423-6.347,36.218-9.814,55.809-9.814S463.234,224.84,480.656,231.187z"/>
		<path fill="none" d="M424.847,241.374c-79.124,0-143.496,64.376-143.496,143.504v23.035h180.873l31.631-41.029l34.196,41.029
			h40.309v-23.035C568.36,305.75,503.98,241.374,424.847,241.374z"/>
		<path fill="none" d="M588.352,434.48v59.968c0,0.01,0,0.019,0,0.028c14.514-2.268,25.657-14.854,25.657-29.998
			S602.866,436.748,588.352,434.48z"/>
		<path fill="#205081" d="M588.36,414.352v-29.474c0-62.958-35.775-117.71-88.061-145.021c0.253-2.503,0.385-5.041,0.385-7.609
			c0-41.812-34.017-75.828-75.828-75.828c-41.821,0-75.845,34.017-75.845,75.828c0,2.569,0.139,5.105,0.394,7.607
			c-52.281,27.311-88.054,82.063-88.054,145.023v30.956c-24.616,3.283-43.672,24.403-43.672,49.903
			c0,25.978,19.773,47.42,45.059,50.078c10.5,80.103,79.196,142.147,162.117,142.147c83.292,0,152.23-62.614,162.241-143.25
			c26.165-1.78,46.912-23.62,46.912-50.233C634.009,438.296,613.925,416.737,588.36,414.352z M261.351,495.353
			c-13.534-3.054-23.672-15.174-23.672-29.616c0-14.44,10.134-26.559,23.663-29.616v58.328c0,0.231,0.008,0.461,0.009,0.692V495.353
			z M424.856,176.419c30.429,0,55.231,24.473,55.801,54.767c-17.423-6.346-36.219-9.813-55.81-9.813s-38.386,3.467-55.809,9.814
			C369.607,200.893,394.418,176.419,424.856,176.419z M568.352,494.448c0,79.134-64.372,143.514-143.496,143.514
			c-78.902,0-143.129-64.005-143.504-142.821v-67.228h190.707l22.404-29.062l24.222,29.062h49.668V494.448z M568.36,407.913h-40.309
			l-34.196-41.029l-31.631,41.029H281.351v-23.035c0-79.128,64.372-143.504,143.496-143.504
			c79.133,0,143.513,64.376,143.513,143.504V407.913z M588.352,494.477c0-0.01,0-0.019,0-0.028V434.48
			c14.515,2.268,25.657,14.854,25.657,29.998S602.865,492.209,588.352,494.477z"/>
	</g>
	<g>
		<path fill="#205081" d="M425.195,21.26c223.228,0,403.935,180.708,403.935,403.936c0,223.227-180.707,403.935-403.935,403.935
			S21.26,648.422,21.26,425.195C21.26,201.968,201.967,21.26,425.195,21.26 M425.195,0C190.275,0,0,190.275,0,425.195
			C0,660.115,190.275,850.39,425.195,850.39s425.194-190.274,425.194-425.194C850.389,190.275,660.115,0,425.195,0L425.195,0z"/>
	</g>
</g>
</svg>
