<?xml version="1.0" encoding="UTF-8" standalone="no"?>
<svg width="16px" height="16px" viewBox="0 0 16 16" version="1.1" xmlns="http://www.w3.org/2000/svg" xmlns:xlink="http://www.w3.org/1999/xlink" xmlns:sketch="http://www.bohemiancoding.com/sketch/ns">
    <!-- Generator: Sketch 3.3 (11970) - http://www.bohemiancoding.com/sketch -->
    <title>concern</title>
    <desc>Created with Sketch.</desc>
    <defs></defs>
    <g id="Page-1" stroke="none" stroke-width="1" fill="none" fill-rule="evenodd" sketch:type="MSPage">
        <g id="concern" sketch:type="MSArtboardGroup">
            <g id="Concern" sketch:type="MSLayerGroup" transform="translate(1.000000, 1.000000)">
                <path d="M13,14 L1,14 C0.448,14 0,13.552 0,13 L0,1 C0,0.448 0.448,0 1,0 L13,0 C13.552,0 14,0.448 14,1 L14,13 C14,13.552 13.552,14 13,14" id="Fill-1" fill="#F89232" sketch:type="MSShapeGroup"></path>
                <path d="M8,9 L6,9 L5,2 L9,2 L8,9 Z M7,9.765625 C6.68749844,9.765625 6.41927195,9.87499891 6.1953125,10.09375 C5.97135305,10.3125011 5.859375,10.5781234 5.859375,10.890625 C5.859375,11.1979182 5.97135305,11.4648426 6.1953125,11.6914062 C6.41927195,11.9179699 6.68749844,12.03125 7,12.03125 C7.31250156,12.03125 7.58072805,11.9179699 7.8046875,11.6914062 C8.02864695,11.4648426 8.140625,11.1979182 8.140625,10.890625 C8.140625,10.5781234 8.02864695,10.3125011 7.8046875,10.09375 C7.58072805,9.87499891 7.31250156,9.765625 7,9.765625 Z" id="Fill-2" fill="#FFFFFF" sketch:type="MSShapeGroup"></path>
            </g>
        </g>
    </g>
</svg>