<?xml version="1.0" encoding="UTF-8" standalone="no"?>
<svg width="16px" height="16px" viewBox="0 0 16 16" version="1.1" xmlns="http://www.w3.org/2000/svg" xmlns:xlink="http://www.w3.org/1999/xlink" xmlns:sketch="http://www.bohemiancoding.com/sketch/ns">
    <!-- Generator: Sketch 3.3 (11970) - http://www.bohemiancoding.com/sketch -->
    <title>requirement</title>
    <desc>Created with Sketch.</desc>
    <defs></defs>
    <g id="Page-1" stroke="none" stroke-width="1" fill="none" fill-rule="evenodd" sketch:type="MSPage">
        <g id="requirement" sketch:type="MSArtboardGroup">
            <g id="Requirement" sketch:type="MSLayerGroup" transform="translate(1.000000, 1.000000)">
                <path d="M13,14 L1,14 C0.448,14 0,13.552 0,13 L0,1 C0,0.448 0.448,0 1,0 L13,0 C13.552,0 14,0.448 14,1 L14,13 C14,13.552 13.552,14 13,14" id="Fill-1" fill="#654982" sketch:type="MSShapeGroup"></path>
                <path d="M6,3 L8,3 L8,4 L6,4 L6,3 Z M5,3 C5,2.448 5.448,2 6,2 L8,2 C8.552,2 9,2.448 9,3 L11,3 L11,11 L3,11 L3,3 L5,3 Z M5,4 C5,4.552 5.448,5 6,5 L8,5 C8.552,5 9,4.552 9,4 L10,4 L10,10 L4,10 L4,4 L5,4 Z" id="Fill-2" fill="#FFFFFF" sketch:type="MSShapeGroup"></path>
            </g>
        </g>
    </g>
</svg>